<?xml version="1.0" encoding="UTF-8"?>
<svg width="410px" height="394px" viewBox="0 0 410 394" version="1.1" xmlns="http://www.w3.org/2000/svg" xmlns:xlink="http://www.w3.org/1999/xlink">
    <!-- Generator: Sketch 48.2 (47327) - http://www.bohemiancoding.com/sketch -->
    <title>005-anonymous-1.eps</title>
    <desc>Created with Sketch.</desc>
    <defs></defs>
    <g id="Page-1" stroke="none" stroke-width="1" fill="none" fill-rule="evenodd">
        <g id="005-anonymous-1.eps" fill="#000" fill-rule="nonzero">
            <path d="M335.105469,267.632812 L291.207031,252.359375 C288.019531,251.230469 284.414062,252.136719 282.113281,254.644531 C260.589844,278.128906 233.128906,291.066406 204.800781,291.066406 C176.46875,291.066406 149.007812,278.128906 127.488281,254.644531 C125.167969,252.136719 121.601562,251.253906 118.390625,252.359375 L74.496094,267.632812 C29.933594,283.128906 0,325.234375 0,372.40625 L0,384.933594 C0,389.640625 3.824219,393.464844 8.535156,393.464844 L401.066406,393.464844 C405.777344,393.464844 409.601562,389.640625 409.601562,384.933594 L409.601562,372.40625 C409.601562,325.214844 379.664062,283.113281 335.105469,267.632812 Z M392.535156,376.398438 L17.066406,376.398438 L17.066406,372.40625 C17.066406,332.484375 42.394531,296.851562 80.09375,283.742188 L118.800781,270.277344 C143,294.734375 173.34375,308.132812 204.800781,308.132812 C236.253906,308.132812 266.597656,294.734375 290.800781,270.277344 L329.507812,283.742188 C367.207031,296.851562 392.535156,332.484375 392.535156,372.40625 L392.535156,376.398438 Z" id="Shape"></path>
            <path d="M307.148438,105.550781 C307.183594,104.816406 307.199219,104.066406 307.199219,103.335938 C307.199219,46.859375 261.273438,0.933594 204.800781,0.933594 C148.328125,0.933594 102.398438,46.859375 102.398438,103.335938 C102.398438,104.066406 102.417969,104.816406 102.453125,105.550781 C92.277344,111.113281 85.332031,126.660156 85.332031,146.003906 C85.332031,169.738281 95.8125,187.777344 109.875,188.632812 C125.390625,240.035156 162.746094,274.003906 204.800781,274.003906 C246.851562,274.003906 284.210938,240.035156 299.726562,188.632812 C313.789062,187.777344 324.265625,169.738281 324.265625,146.003906 C324.265625,126.660156 317.320312,111.113281 307.148438,105.550781 Z M298.136719,171.222656 C295.816406,169.789062 292.964844,169.550781 290.421875,170.574219 C287.914062,171.597656 286.035156,173.765625 285.371094,176.410156 C273.425781,224.574219 241.050781,256.933594 204.800781,256.933594 C168.550781,256.933594 136.175781,224.574219 124.226562,176.410156 C123.5625,173.765625 121.429688,171.804688 118.902344,170.761719 C117.964844,170.371094 116.941406,170.199219 115.898438,170.199219 C114.160156,170.199219 112.382812,170.695312 110.933594,171.597656 C108.800781,171.597656 102.398438,162.519531 102.398438,146.003906 C102.398438,130.347656 108.152344,121.386719 110.558594,120.464844 C110.644531,120.484375 110.746094,120.503906 110.8125,120.503906 C113.324219,120.6875 115.898438,119.851562 117.707031,118.046875 C119.519531,116.21875 120.421875,113.675781 120.148438,111.132812 L119.910156,108.996094 C119.707031,107.121094 119.464844,105.261719 119.464844,103.335938 C119.464844,56.277344 157.746094,18.003906 204.800781,18.003906 C251.851562,18.003906 290.132812,56.277344 290.132812,103.335938 C290.132812,105.261719 289.894531,107.121094 289.691406,108.980469 L289.449219,111.113281 C289.195312,113.675781 290.082031,116.21875 291.890625,118.027344 C293.71875,119.851562 296.261719,120.710938 298.785156,120.503906 C298.855469,120.484375 298.957031,120.484375 299.042969,120.464844 C301.449219,121.386719 307.199219,130.347656 307.199219,146.003906 C307.199219,162.519531 300.9375,171.597656 298.136719,171.222656 Z" id="Shape"></path>
            <path d="M204.800781,69.199219 C184.695312,69.199219 170.667969,83.226562 170.667969,103.335938 C170.667969,108.046875 174.488281,111.867188 179.199219,111.867188 C183.910156,111.867188 187.734375,108.046875 187.734375,103.335938 C187.734375,87.9375 199.664062,86.265625 204.800781,86.265625 C209.9375,86.265625 221.867188,87.9375 221.867188,103.335938 C221.867188,117.652344 218.707031,124.1875 208.878906,130.175781 C189.898438,141.785156 186.726562,157.128906 187.835938,164.363281 C188.484375,168.5625 192.066406,171.445312 196.199219,171.445312 C196.539062,171.445312 196.898438,171.410156 197.257812,171.378906 C201.8125,170.847656 205.105469,166.632812 204.730469,162.046875 C204.714844,161.683594 204.167969,153.066406 217.789062,144.753906 C232.804688,135.570312 238.933594,123.574219 238.933594,103.335938 C238.933594,83.226562 224.90625,69.199219 204.800781,69.199219 Z" id="Shape"></path>
            <path d="M204.800781,197.199219 C204.800781,201.910156 200.980469,205.730469 196.265625,205.730469 C191.554688,205.730469 187.734375,201.910156 187.734375,197.199219 C187.734375,192.484375 191.554688,188.664062 196.265625,188.664062 C200.980469,188.664062 204.800781,192.484375 204.800781,197.199219 Z" id="Shape"></path>
        </g>
    </g>
</svg>
