<?xml version="1.0" encoding="UTF-8"?>
<svg width="89px" height="89px" viewBox="0 0 89 89" version="1.1" xmlns="http://www.w3.org/2000/svg" xmlns:xlink="http://www.w3.org/1999/xlink">
    <!-- Generator: Sketch 51.2 (57519) - http://www.bohemiancoding.com/sketch -->
    <title>Group 10</title>
    <desc>Created with Sketch.</desc>
    <defs>
        <polygon id="path-1" points="0.0052734375 0.00174330226 45 0.00174330226 45 16.8692797 0.0052734375 16.8692797"></polygon>
    </defs>
    <g id="Page-1" stroke="none" stroke-width="1" fill="none" fill-rule="evenodd">
        <g id="Desktop-HD-Copy" transform="translate(-925.000000, -1727.000000)">
            <g id="Group-10" transform="translate(925.000000, 1727.000000)">
                <circle id="Oval-Copy-11" fill="#6A7789" style="mix-blend-mode: multiply;" cx="44.5" cy="44.5" r="44.5"></circle>
                <g id="anonymous" transform="translate(22.000000, 22.000000)">
                    <g id="Group-3" transform="translate(0.000000, 28.125000)">
                        <mask id="mask-2" fill="white">
                            <use xlink:href="#path-1"></use>
                        </mask>
                        <g id="Clip-2"></g>
                        <path d="M1.8749707,14.8410381 L43.1250293,14.8410381 L43.1250293,14.3651059 C43.1250293,9.60788136 40.3425,5.36110169 36.2006543,3.7990678 L31.9481543,2.19432203 C29.289375,5.10883475 25.9555957,6.70547669 22.5,6.70547669 C19.0444043,6.70547669 15.710625,5.10883475 13.0518457,2.19432203 L8.7993457,3.7990678 C4.6575,5.36110169 1.8749707,9.60788136 1.8749707,14.3651059 L1.8749707,14.8410381 Z M44.0624707,16.875 L0.937529297,16.875 C0.420029297,16.875 0,16.419375 0,15.8580191 L0,14.3651059 C0,8.7434428 3.2887793,3.72584746 8.184375,1.87903602 L13.0068457,0.0587288136 C13.359375,-0.0735063559 13.7512793,0.0322245763 14.00625,0.331207627 C16.3705957,3.12988347 19.3875293,4.67161017 22.5,4.67161017 C25.6124707,4.67161017 28.6294043,3.12988347 30.99375,0.331207627 C31.246875,0.0322245763 31.6424707,-0.0755084746 31.9931543,0.0587288136 L36.815625,1.87903602 C41.7112207,3.72375 45,8.74144068 45,14.3651059 L45,15.8580191 C45,16.419375 44.5799707,16.875 44.0624707,16.875 Z" id="Fill-1" fill="#0A090B" mask="url(#mask-2)"></path>
                    </g>
                    <path d="M12.6850198,19.4264587 C12.7999291,19.4264587 12.9129835,19.4460152 13.0165873,19.491096 C13.2955138,19.6105466 13.530985,19.8358591 13.6044704,20.1393975 C14.9234978,25.6669001 18.4978728,29.380609 22.5,29.380609 C26.5021272,29.380609 30.0765022,25.6669001 31.3955296,20.1393975 C31.469015,19.8358591 31.6762226,19.5870421 31.9532059,19.4695197 C32.2339872,19.3519972 32.5486849,19.3794497 32.8049122,19.5439811 C33.1139571,19.5870421 33.805444,18.5450404 33.805444,16.6489812 C33.805444,14.8529078 33.1704843,13.8245865 32.9048064,13.7188163 C32.8953557,13.7207444 32.8840503,13.7207444 32.8765428,13.7226725 C32.5976163,13.746177 32.3169233,13.6483029 32.1152801,13.4386906 C31.91558,13.2310982 31.8175406,12.9392202 31.8458042,12.6454141 L31.872213,12.4005451 C31.8948239,12.1870766 31.9212327,11.9736081 31.9212327,11.7522436 C31.9212327,6.35208768 27.6948515,1.95867667 22.5,1.95867667 C17.3051485,1.95867667 13.0787673,6.35208768 13.0787673,11.7522436 C13.0787673,11.9736081 13.1051761,12.1870766 13.127787,12.402565 L13.1541958,12.6473422 C13.1843142,12.9392202 13.08442,13.2310982 12.8847199,13.4406187 C12.6850198,13.6483029 12.4004406,13.7442489 12.1234572,13.7226725 C12.1159497,13.7226725 12.1046443,13.7207444 12.0951936,13.7188163 C11.8295157,13.8245865 11.194556,14.8529078 11.194556,16.6489812 C11.194556,18.5450404 11.9011463,19.5870421 12.1367058,19.5870421 C12.2968368,19.4832918 12.4928273,19.4264587 12.6850198,19.4264587 Z M22.5,31.3392857 C17.8572605,31.3392857 13.7326282,27.4414889 12.0198535,21.5418626 C10.4672097,21.4438966 9.31034483,19.3735736 9.31034483,16.6489812 C9.31034483,14.4298271 10.0771719,12.6454141 11.2002088,12.006845 C11.1964108,11.9226512 11.194556,11.8364374 11.194556,11.7522436 C11.194556,5.27088126 16.2650477,0 22.5,0 C28.7349523,0 33.805444,5.27088126 33.805444,11.7522436 C33.805444,11.8364374 33.8035892,11.9226512 33.7997912,12.006845 C34.9228281,12.6454141 35.6896552,14.4298271 35.6896552,16.6489812 C35.6896552,19.3735736 34.5327903,21.4438966 32.9801465,21.5418626 C31.2673718,27.4414889 27.1427395,31.3392857 22.5,31.3392857 Z" id="Fill-4" fill="#0A090B"></path>
                    <path d="M21.2322483,18.4821429 C20.8097674,18.4821429 20.4431754,18.1648212 20.3768943,17.7028783 C20.2633981,16.9067133 20.5880938,15.2185267 22.5293128,13.941582 C23.5348222,13.2824683 23.8577177,12.5633232 23.8577177,10.9878056 C23.8577177,9.29398562 22.6374902,9.11001826 22.112069,9.11001826 C21.5866478,9.11001826 20.3664202,9.29398562 20.3664202,10.9878056 C20.3664202,11.5060831 19.9753615,11.9267434 19.4935549,11.9267434 C19.0117484,11.9267434 18.6206897,11.5060831 18.6206897,10.9878056 C18.6206897,8.77570821 20.0556353,7.23214286 22.112069,7.23214286 C24.1685026,7.23214286 25.6034483,8.77570821 25.6034483,10.9878056 C25.6034483,13.2148669 24.9767233,14.5350308 23.4405557,15.5452668 C22.0475062,16.4597342 22.1033133,17.4080904 22.1051135,17.4475245 C22.1434911,17.9525985 21.8066029,18.416478 21.3405074,18.4746609 C21.3038482,18.4784459 21.267189,18.4821429 21.2322483,18.4821429" id="Fill-5" fill="#0A090B"></path>
                    <path d="M21.7241016,21.6964286 C22.1526023,21.6964286 22.5,22.056158 22.5,22.4999623 C22.5,22.9437667 22.1526023,23.3035714 21.7241016,23.3035714 C21.2956008,23.3035714 20.9482759,22.9437667 20.9482759,22.4999623 C20.9482759,22.056158 21.2956008,21.6964286 21.7241016,21.6964286" id="Fill-6" fill="#0A090B"></path>
                </g>
            </g>
        </g>
    </g>
</svg>