<?xml version="1.0" encoding="UTF-8"?>
<svg width="384px" height="384px" viewBox="0 0 384 384" version="1.1" xmlns="http://www.w3.org/2000/svg" xmlns:xlink="http://www.w3.org/1999/xlink">
    <!-- Generator: Sketch 48.2 (47327) - http://www.bohemiancoding.com/sketch -->
    <title>001-decentralized.eps</title>
    <desc>Created with Sketch.</desc>
    <defs></defs>
    <g id="Page-1" stroke="none" stroke-width="1" fill="none" fill-rule="evenodd">
        <g id="001-decentralized.eps" fill="#000" fill-rule="nonzero">
            <path d="M192,102.398438 C142.515625,102.398438 102.398438,142.515625 102.398438,192 C102.398438,241.484375 142.515625,281.601562 192,281.601562 C241.460938,281.546875 281.546875,241.460938 281.601562,192 C281.601562,142.515625 241.484375,102.398438 192,102.398438 Z M258.597656,153.914062 C264.183594,163.621094 267.554688,174.4375 268.472656,185.601562 L236.644531,185.601562 C236.363281,176.261719 235.3125,166.964844 233.511719,157.796875 C242.46875,156.820312 250.917969,155.511719 258.597656,153.914062 Z M250.574219,142.445312 C244.261719,143.585938 237.492188,144.539062 230.363281,145.28125 C227.835938,136.410156 224.019531,127.960938 219.035156,120.203125 C231.265625,124.820312 242.117188,132.472656 250.574219,142.445312 Z M160.148438,185.601562 C160.4375,176.65625 161.492188,167.75 163.296875,158.980469 C172.558594,159.65625 182.203125,160 192,160 C201.796875,160 211.441406,159.65625 220.703125,158.980469 C222.507812,167.75 223.5625,176.65625 223.851562,185.601562 L160.148438,185.601562 Z M223.851562,198.398438 C223.5625,207.34375 222.507812,216.25 220.703125,225.019531 C211.441406,224.34375 201.796875,224 192,224 C182.203125,224 172.558594,224.34375 163.296875,225.019531 C161.492188,216.25 160.4375,207.34375 160.148438,198.398438 L223.851562,198.398438 Z M192,115.199219 C201.230469,115.199219 211.070312,126.964844 217.375,146.367188 C209.164062,146.898438 200.664062,147.199219 192,147.199219 C183.335938,147.199219 174.835938,146.898438 166.625,146.367188 C172.929688,126.964844 182.769531,115.199219 192,115.199219 Z M164.964844,120.203125 C159.980469,127.960938 156.164062,136.410156 153.636719,145.28125 C146.507812,144.539062 139.738281,143.585938 133.425781,142.445312 C141.882812,132.472656 152.734375,124.820312 164.964844,120.203125 Z M125.402344,153.914062 C133.082031,155.511719 141.515625,156.820312 150.488281,157.796875 C148.6875,166.964844 147.636719,176.261719 147.355469,185.601562 L115.527344,185.601562 C116.445312,174.4375 119.816406,163.621094 125.402344,153.914062 Z M125.402344,230.085938 C119.816406,220.378906 116.445312,209.5625 115.527344,198.398438 L147.355469,198.398438 C147.636719,207.738281 148.6875,217.035156 150.488281,226.203125 C141.53125,227.179688 133.082031,228.488281 125.402344,230.085938 Z M133.425781,241.554688 C139.738281,240.414062 146.507812,239.460938 153.636719,238.71875 C156.164062,247.589844 159.980469,256.039062 164.964844,263.796875 C152.734375,259.179688 141.882812,251.527344 133.425781,241.554688 Z M192,268.800781 C182.769531,268.800781 172.929688,257.035156 166.625,237.632812 C174.835938,237.101562 183.335938,236.800781 192,236.800781 C200.664062,236.800781 209.164062,237.101562 217.375,237.632812 C211.070312,257.035156 201.230469,268.800781 192,268.800781 Z M219.035156,263.796875 C224.019531,256.039062 227.835938,247.589844 230.363281,238.71875 C237.492188,239.460938 244.261719,240.414062 250.574219,241.554688 C242.117188,251.527344 231.265625,259.179688 219.035156,263.796875 Z M258.597656,230.085938 C250.917969,228.488281 242.484375,227.179688 233.511719,226.203125 C235.3125,217.035156 236.363281,207.738281 236.644531,198.398438 L268.472656,198.398438 C267.554688,209.5625 264.183594,220.378906 258.597656,230.085938 Z" id="Shape"></path>
            <path d="M70.398438,0 L6.398438,0 C2.867188,0 0,2.867188 0,6.398438 L0,57.601562 C0,61.132812 2.867188,64 6.398438,64 L32,64 L32,76.800781 L6.398438,76.800781 L6.398438,89.601562 L70.398438,89.601562 L70.398438,76.800781 L44.800781,76.800781 L44.800781,64 L70.398438,64 C73.933594,64 76.800781,61.132812 76.800781,57.601562 L76.800781,6.398438 C76.800781,2.867188 73.933594,0 70.398438,0 Z M64,51.199219 L12.800781,51.199219 L12.800781,12.800781 L64,12.800781 L64,51.199219 Z" id="Shape"></path>
            <path d="M377.601562,0 L313.601562,0 C310.066406,0 307.199219,2.867188 307.199219,6.398438 L307.199219,57.601562 C307.199219,61.132812 310.066406,64 313.601562,64 L339.199219,64 L339.199219,76.800781 L313.601562,76.800781 L313.601562,89.601562 L377.601562,89.601562 L377.601562,76.800781 L352,76.800781 L352,64 L377.601562,64 C381.132812,64 384,61.132812 384,57.601562 L384,6.398438 C384,2.867188 381.132812,0 377.601562,0 Z M371.199219,51.199219 L320,51.199219 L320,12.800781 L371.199219,12.800781 L371.199219,51.199219 Z" id="Shape"></path>
            <path d="M70.398438,358.398438 C73.933594,358.398438 76.800781,355.535156 76.800781,352 L76.800781,300.800781 C76.800781,297.265625 73.933594,294.398438 70.398438,294.398438 L6.398438,294.398438 C2.867188,294.398438 0,297.265625 0,300.800781 L0,352 C0,355.535156 2.867188,358.398438 6.398438,358.398438 L32,358.398438 L32,371.199219 L0,371.199219 L0,384 L76.800781,384 L76.800781,371.199219 L44.800781,371.199219 L44.800781,358.398438 L70.398438,358.398438 Z M12.800781,345.601562 L12.800781,307.199219 L64,307.199219 L64,345.601562 L12.800781,345.601562 Z" id="Shape"></path>
            <path d="M377.601562,358.398438 C381.132812,358.398438 384,355.535156 384,352 L384,300.800781 C384,297.265625 381.132812,294.398438 377.601562,294.398438 L313.601562,294.398438 C310.066406,294.398438 307.199219,297.265625 307.199219,300.800781 L307.199219,352 C307.199219,355.535156 310.066406,358.398438 313.601562,358.398438 L339.199219,358.398438 L339.199219,371.199219 L307.199219,371.199219 L307.199219,384 L384,384 L384,371.199219 L352,371.199219 L352,358.398438 L377.601562,358.398438 Z M320,345.601562 L320,307.199219 L371.199219,307.199219 L371.199219,345.601562 L320,345.601562 Z" id="Shape"></path>
            <path d="M101.472656,92.398438 L110.847656,89.265625 L106.777344,77.132812 L87.578125,83.53125 C85.664062,84.160156 84.160156,85.664062 83.53125,87.578125 L77.132812,106.777344 L89.292969,110.824219 L92.421875,101.445312 L110.699219,119.726562 L119.75,110.675781 L101.472656,92.398438 Z" id="Shape"></path>
            <path d="M300.492188,87.601562 C299.867188,85.671875 298.351562,84.160156 296.421875,83.53125 L277.222656,77.132812 L273.175781,89.292969 L282.554688,92.421875 L264.273438,110.699219 L273.324219,119.75 L291.601562,101.472656 L294.734375,110.847656 L306.894531,106.804688 L300.492188,87.601562 Z" id="Shape"></path>
            <path d="M119.699219,273.300781 L110.675781,264.273438 L92.398438,282.554688 L89.265625,273.175781 L77.105469,277.222656 L83.507812,296.421875 C84.136719,298.335938 85.636719,299.839844 87.550781,300.46875 L106.753906,306.867188 L110.796875,294.707031 L101.421875,291.578125 L119.699219,273.300781 Z" id="Shape"></path>
            <path d="M294.707031,273.175781 L291.578125,282.554688 L273.300781,264.273438 L264.25,273.324219 L282.527344,291.601562 L273.152344,294.734375 L277.222656,306.867188 L296.421875,300.46875 C298.335938,299.839844 299.839844,298.335938 300.46875,296.421875 L306.867188,277.222656 L294.707031,273.175781 Z" id="Shape"></path>
            <polygon id="Shape" points="185.601562 76.800781 198.398438 76.800781 198.398438 25.601562 185.601562 25.601562"></polygon>
            <polygon id="Shape" points="185.601562 12.800781 198.398438 12.800781 198.398438 0 185.601562 0"></polygon>
            <polygon id="Shape" points="213.070312 85.070312 225.871094 72.273438 234.921875 81.324219 222.125 94.125"></polygon>
            <polygon id="Shape" points="149.078125 81.324219 158.128906 72.273438 170.925781 85.070312 161.875 94.121094"></polygon>
            <polygon id="Shape" points="185.601562 358.398438 198.398438 358.398438 198.398438 307.199219 185.601562 307.199219"></polygon>
            <polygon id="Shape" points="185.601562 384 198.398438 384 198.398438 371.199219 185.601562 371.199219"></polygon>
            <polygon id="Shape" points="213.074219 298.929688 222.125 289.878906 234.925781 302.675781 225.875 311.726562"></polygon>
            <polygon id="Shape" points="152.277344 299.46875 161.875 289.871094 170.925781 298.921875 161.328125 308.519531"></polygon>
            <polygon id="Shape" points="307.199219 198.398438 358.398438 198.398438 358.398438 185.601562 307.199219 185.601562"></polygon>
            <polygon id="Shape" points="371.199219 198.398438 384 198.398438 384 185.601562 371.199219 185.601562"></polygon>
            <polygon id="Shape" points="289.875 161.871094 302.671875 149.074219 311.722656 158.125 298.925781 170.921875"></polygon>
            <polygon id="Shape" points="289.875 222.09375 298.925781 213.042969 311.722656 225.839844 302.671875 234.890625"></polygon>
            <polygon id="Shape" points="25.601562 198.398438 76.800781 198.398438 76.800781 185.601562 25.601562 185.601562"></polygon>
            <polygon id="Shape" points="0 198.398438 12.800781 198.398438 12.800781 185.601562 0 185.601562"></polygon>
            <polygon id="Shape" points="72.277344 158.128906 81.328125 149.078125 94.125 161.875 85.074219 170.925781"></polygon>
            <polygon id="Shape" points="72.273438 225.875 85.070312 213.078125 94.121094 222.128906 81.324219 234.925781"></polygon>
        </g>
    </g>
</svg>
