<?xml version="1.0" encoding="UTF-8"?>
<svg width="89px" height="89px" viewBox="0 0 89 89" version="1.1" xmlns="http://www.w3.org/2000/svg" xmlns:xlink="http://www.w3.org/1999/xlink">
    <!-- Generator: Sketch 51.2 (57519) - http://www.bohemiancoding.com/sketch -->
    <title>Group 8</title>
    <desc>Created with Sketch.</desc>
    <defs>
        <polygon id="path-1" points="0 0 45 0 45 44.994375 0 44.994375"></polygon>
    </defs>
    <g id="Page-1" stroke="none" stroke-width="1" fill="none" fill-rule="evenodd">
        <g id="Desktop-HD-Copy" transform="translate(-447.000000, -1727.000000)">
            <g id="Group-8" transform="translate(447.000000, 1727.000000)">
                <circle id="Oval-Copy-10" fill="#DF6C54" style="mix-blend-mode: multiply;" cx="44.5" cy="44.5" r="44.5"></circle>
                <g id="decentralized(2)" transform="translate(22.000000, 22.000000)">
                    <path d="M25.668,30.9135 C26.2524375,30.0045 26.6997187,29.0144062 26.9955,27.975 C27.831,28.062 28.6245,28.17375 29.364,28.30725 C28.37325,29.4756562 27.10125,30.3726562 25.668,30.9135 Z M15.636,28.30725 C16.3755,28.17375 17.169,28.062 18.0045,27.975 C18.3002812,29.0144062 18.7475625,30.0045 19.332,30.9135 C17.89875,30.3726562 16.62675,29.4756562 15.636,28.30725 Z M19.332,14.0865 C18.7475625,14.9955 18.3002812,15.9855937 18.0045,17.025 C17.169,16.938 16.3755,16.82625 15.636,16.69275 C16.62675,15.5243437 17.89875,14.6273437 19.332,14.0865 Z M29.364,16.69275 C28.6245,16.82625 27.831,16.938 26.9955,17.025 C26.6997187,15.9855937 26.2524375,14.9955 25.668,14.0865 C27.10125,14.6273437 28.37325,15.5243437 29.364,16.69275 Z M27.732,23.25 L31.46175,23.25 C31.3542187,24.5579062 30.9589687,25.825875 30.3045,26.96325 C29.4045,26.77575 28.416,26.62275 27.3645,26.508 C27.5757187,25.4338125 27.698625,24.34425 27.732,23.25 Z M17.268,23.25 C17.301375,24.34425 17.4242812,25.4338125 17.6355,26.508 C16.5855,26.62275 15.5955,26.77575 14.6955,26.96325 C14.0410312,25.825875 13.6457812,24.5579062 13.53825,23.25 L17.268,23.25 Z M17.268,21.75 L13.53825,21.75 C13.6457812,20.4420937 14.0410312,19.174125 14.6955,18.03675 C15.5955,18.22425 16.584,18.37725 17.6355,18.492 C17.4242812,19.5661875 17.301375,20.65575 17.268,21.75 Z M27.732,21.75 C27.698625,20.65575 27.5757187,19.5661875 27.3645,18.492 C28.4145,18.37725 29.4045,18.22425 30.3045,18.03675 C30.9589687,19.174125 31.3542187,20.4420937 31.46175,21.75 L27.732,21.75 Z M22.5,18.75 C23.64825,18.75 24.7785,18.7095 25.86375,18.63075 C26.07525,19.6581562 26.1987187,20.7016875 26.23275,21.75 L18.76725,21.75 C18.801375,20.7016875 18.92475,19.6581562 19.13625,18.63075 C20.2215,18.7095 21.35175,18.75 22.5,18.75 Z M22.5,13.5 C23.5815,13.5 24.735,14.8785 25.47375,17.1525 C24.5115,17.21475 23.5155,17.25 22.5,17.25 C21.4845,17.25 20.4885,17.21475 19.52625,17.1525 C20.265,14.8785 21.4185,13.5 22.5,13.5 Z M22.5,26.25 C21.35175,26.25 20.2215,26.2905 19.13625,26.36925 C18.92475,25.3418437 18.801375,24.2983125 18.76725,23.25 L26.23275,23.25 C26.1987187,24.2983125 26.07525,25.3418437 25.86375,26.36925 C24.7785,26.2905 23.64825,26.25 22.5,26.25 Z M22.5,31.5 C21.4185,31.5 20.265,30.1215 19.52625,27.8475 C20.4885,27.78525 21.4845,27.75 22.5,27.75 C23.5155,27.75 24.5115,27.78525 25.47375,27.8475 C24.735,30.1215 23.5815,31.5 22.5,31.5 Z M33,22.5 C33,16.701 28.299,12 22.5,12 C16.701,12 12,16.701 12,22.5 C12,28.299 16.701,33 22.5,33 C28.296375,32.9938125 32.9938125,28.296375 33,22.5 Z" id="Fill-1" fill="#0A090B"></path>
                    <path d="M1.5,6.28571429 L7.5,6.28571429 L7.5,1.57142857 L1.5,1.57142857 L1.5,6.28571429 Z M0.75,7.85714286 L3.75,7.85714286 L3.75,9.42857143 L0.75,9.42857143 L0.75,11 L8.25,11 L8.25,9.42857143 L5.25,9.42857143 L5.25,7.85714286 L8.25,7.85714286 C8.6641875,7.85714286 9,7.50533929 9,7.07142857 L9,0.785714286 C9,0.351803571 8.6641875,0 8.25,0 L0.75,0 C0.3358125,0 0,0.351803571 0,0.785714286 L0,7.07142857 C0,7.50533929 0.3358125,7.85714286 0.75,7.85714286 Z" id="Fill-2" fill="#0A090B"></path>
                    <g id="Group-7">
                        <mask id="mask-2" fill="white">
                            <use xlink:href="#path-1"></use>
                        </mask>
                        <g id="Clip-4"></g>
                        <path d="M37.5,6 L43.5,6 L43.5,1.5 L37.5,1.5 L37.5,6 Z M44.25,0 L36.75,0 C36.3358125,0 36,0.3358125 36,0.75 L36,6.75 C36,7.1641875 36.3358125,7.5 36.75,7.5 L39.75,7.5 L39.75,9 L36.75,9 L36.75,10.5 L44.25,10.5 L44.25,9 L41.25,9 L41.25,7.5 L44.25,7.5 C44.6641875,7.5 45,7.1641875 45,6.75 L45,0.75 C45,0.3358125 44.6641875,0 44.25,0 Z" id="Fill-3" fill="#0A090B" mask="url(#mask-2)"></path>
                        <path d="M1.5,40.5 L7.5,40.5 L7.5,36 L1.5,36 L1.5,40.5 Z M9,43.5 L5.25,43.5 L5.25,42 L8.25,42 C8.6641875,42 9,41.6641875 9,41.25 L9,35.25 C9,34.8358125 8.6641875,34.5 8.25,34.5 L0.75,34.5 C0.3358125,34.5 0,34.8358125 0,35.25 L0,41.25 C0,41.6641875 0.3358125,42 0.75,42 L3.75,42 L3.75,43.5 L0,43.5 L0,45 L9,45 L9,43.5 Z" id="Fill-5" fill="#0A090B" mask="url(#mask-2)"></path>
                        <path d="M37.5,40.5 L43.5,40.5 L43.5,36 L37.5,36 L37.5,40.5 Z M44.25,34.5 L36.75,34.5 C36.3358125,34.5 36,34.8358125 36,35.25 L36,41.25 C36,41.6641875 36.3358125,42 36.75,42 L39.75,42 L39.75,43.5 L36,43.5 L36,45 L45,45 L45,43.5 L41.25,43.5 L41.25,42 L44.25,42 C44.6641875,42 45,41.6641875 45,41.25 L45,35.25 C45,34.8358125 44.6641875,34.5 44.25,34.5 Z" id="Fill-6" fill="#0A090B" mask="url(#mask-2)"></path>
                    </g>
                    <path d="M12.4779997,9 L10.2254092,9.7513148 C10.0008072,9.82503757 9.82454197,10.0014087 9.75086349,10.2261458 L9,12.4800902 L10.4266406,12.9549211 L10.7938129,11.8542449 L12.938279,14 L14,12.9376409 L11.8555339,10.7918858 L12.9555489,10.4244929 L12.4779997,9" id="Fill-8" fill="#0A090B"></path>
                    <path d="M34.7715873,9.75086349 L32.5189968,9 L32.0444511,10.4266406 L33.1444661,10.7938129 L31,12.938279 L32.061721,14 L34.2061871,11.8555339 L34.5733594,12.9555489 L36,12.4810032 L35.2491365,10.2284127 C35.1756457,10.0019335 34.9980665,9.82435426 34.7715873,9.75086349" id="Fill-9" fill="#0A090B"></path>
                    <path d="M12.9406461,31 L10.7948911,33.1457551 L10.4274981,32.0450789 L9,32.5199098 L9.7513148,34.7738542 C9.82503757,34.9985913 10.0014087,35.1749624 10.2261458,35.2486852 L12.4800902,36 L12.9549211,34.5725019 L11.8542449,34.2051089 L14,32.0593539 L12.9406461,31" id="Fill-10" fill="#0A090B"></path>
                    <path d="M32.5220003,36 L34.7745908,35.2486852 C34.9992867,35.1749624 35.175458,34.9986852 35.2491365,34.7738542 L36,32.5199098 L34.5733594,32.0450789 L34.2061871,33.1457551 L32.061721,31 L31,32.0623591 L33.1444661,34.2081142 L32.0444511,34.5755071 L32.5220003,36" id="Fill-11" fill="#0A090B"></path>
                    <polygon id="Fill-12" fill="#0A090B" points="22 9 24 9 24 3 22 3"></polygon>
                    <polygon id="Fill-13" fill="#0A090B" points="22 2 24 2 24 0 22 0"></polygon>
                    <polyline id="Fill-14" fill="#0A090B" points="25 9.7573139 26.7573139 8 28 9.24279594 26.2427959 11 25 9.7573139"></polyline>
                    <polyline id="Fill-15" fill="#0A090B" points="17 9.24279594 18.2427504 8 20 9.75720406 18.7572496 11 17 9.24279594"></polyline>
                    <g id="Group-19" transform="translate(22.000000, 36.000000)" fill="#0A090B">
                        <polygon id="Fill-16" points="0 6 2 6 2 0 0 0"></polygon>
                        <polygon id="Fill-18" points="0 8.994375 2 8.994375 2 7.5 0 7.5"></polygon>
                    </g>
                    <polyline id="Fill-20" fill="#0A090B" points="25 35.2427959 26.2427959 34 28 35.7572041 26.7573139 37 25 35.2427959"></polyline>
                    <polyline id="Fill-21" fill="#0A090B" points="18 35.0293411 19.0293411 34 20 34.9706589 18.9705731 36 18 35.0293411"></polyline>
                    <polygon id="Fill-22" fill="#0A090B" points="36 24 42 24 42 22 36 22"></polygon>
                    <polygon id="Fill-23" fill="#0A090B" points="43 24 45 24 45 22 43 22"></polygon>
                    <polyline id="Fill-24" fill="#0A090B" points="34 18.7573139 35.7572496 17 37 18.2427959 35.2427504 20 34 18.7573139"></polyline>
                    <polyline id="Fill-25" fill="#0A090B" points="34 26.2426861 35.2427959 25 37 26.7572041 35.7573139 28 34 26.2426861"></polyline>
                    <polygon id="Fill-26" fill="#0A090B" points="3 24 9 24 9 22 3 22"></polygon>
                    <polygon id="Fill-27" fill="#0A090B" points="0 24 2 24 2 22 0 22"></polygon>
                    <polyline id="Fill-28" fill="#0A090B" points="8 18.2427959 9.24275044 17 11 18.7573139 9.75724956 20 8 18.2427959"></polyline>
                    <polyline id="Fill-29" fill="#0A090B" points="8 26.7572041 9.7573139 25 11 26.2426861 9.24279594 28 8 26.7572041"></polyline>
                </g>
            </g>
        </g>
    </g>
</svg>