<?xml version="1.0" encoding="UTF-8"?>
<svg width="410px" height="407px" viewBox="0 0 410 407" version="1.1" xmlns="http://www.w3.org/2000/svg" xmlns:xlink="http://www.w3.org/1999/xlink">
    <!-- Generator: Sketch 48.2 (47327) - http://www.bohemiancoding.com/sketch -->
    <title>004-support.eps</title>
    <desc>Created with Sketch.</desc>
    <defs></defs>
    <g id="Page-1" stroke="none" stroke-width="1" fill="none" fill-rule="evenodd">
        <g id="004-support.eps" fill="#000" fill-rule="nonzero">
            <path d="M399.613281,260.578125 L395.59375,260.578125 L395.59375,242.933594 C411.496094,226.839844 409.6875,198.121094 409.386719,194.484375 L409.386719,164.414062 C409.386719,154.738281 401.507812,146.863281 391.832031,146.863281 L391.15625,146.863281 C388.097656,146.863281 385.214844,147.652344 382.707031,149.035156 C379.488281,144.992188 374.523438,142.394531 368.96875,142.394531 L368.292969,142.394531 C365.328125,142.394531 362.511719,143.121094 360.035156,144.4375 C356.8125,140.613281 351.988281,138.179688 346.605469,138.179688 L345.929688,138.179688 C343.476562,138.179688 341.117188,138.683594 338.964844,139.613281 C335.820312,134.855469 330.421875,131.703125 324.304688,131.703125 L323.628906,131.703125 C313.949219,131.703125 306.074219,139.578125 306.074219,149.261719 L306.074219,166.179688 C299.023438,165.425781 293.515625,166.769531 289.347656,170.257812 C280.3125,177.820312 281.222656,192.824219 282.101562,207.339844 C283.300781,227.144531 300.960938,243.765625 307.765625,249.46875 L307.765625,260.578125 L304.375,260.578125 C300.804688,260.578125 297.914062,263.472656 297.914062,267.039062 L297.914062,399.9375 C297.914062,403.507812 300.804688,406.402344 304.375,406.402344 L399.613281,406.402344 C403.183594,406.402344 406.078125,403.507812 406.078125,399.9375 L406.078125,267.039062 C406.074219,263.472656 403.183594,260.578125 399.613281,260.578125 Z M295,206.558594 C294.378906,196.304688 293.605469,183.546875 297.640625,180.164062 C299.140625,178.914062 302.078125,178.59375 306.074219,179.21875 L306.074219,187.996094 C306.074219,191.5625 308.964844,194.453125 312.535156,194.453125 C316.105469,194.453125 318.996094,191.5625 318.996094,187.996094 L318.996094,149.265625 C318.996094,146.710938 321.074219,144.632812 323.628906,144.632812 L324.304688,144.632812 C326.859375,144.632812 328.9375,146.710938 328.9375,149.265625 L328.9375,174.210938 C328.9375,177.78125 331.828125,180.671875 335.398438,180.671875 C338.96875,180.671875 341.859375,177.78125 341.859375,174.210938 L341.859375,153.539062 C342.65625,152.058594 344.203125,151.105469 345.929688,151.105469 L346.605469,151.105469 C349.160156,151.105469 351.238281,153.183594 351.238281,155.738281 L351.238281,174.210938 C351.238281,177.78125 354.128906,180.671875 357.699219,180.671875 C361.269531,180.671875 364.160156,177.78125 364.160156,174.210938 L364.160156,157.855469 C364.9375,156.316406 366.515625,155.324219 368.292969,155.324219 L368.964844,155.324219 C371.519531,155.324219 373.597656,157.402344 373.597656,159.953125 L373.597656,177.382812 C373.597656,180.953125 376.488281,183.84375 380.058594,183.84375 C383.628906,183.84375 386.519531,180.953125 386.519531,177.382812 L386.519531,164.425781 C386.519531,161.871094 388.601562,159.789062 391.15625,159.789062 L391.828125,159.789062 C394.382812,159.789062 396.460938,161.871094 396.460938,164.425781 L396.460938,194.773438 C396.460938,194.976562 396.472656,195.183594 396.492188,195.390625 C397.234375,203.117188 396.613281,225.324219 384.957031,235.191406 C383.503906,236.421875 382.667969,238.222656 382.667969,240.121094 L382.667969,260.585938 L320.6875,260.585938 L320.6875,246.371094 C320.6875,244.328125 319.714844,242.402344 318.082031,241.183594 C317.863281,241.019531 296.09375,224.574219 295,206.558594 Z M393.152344,393.480469 L310.835938,393.480469 L310.835938,306.742188 L393.152344,306.742188 L393.152344,393.480469 Z M393.152344,293.820312 L310.835938,293.820312 L310.835938,273.503906 L393.152344,273.503906 L393.152344,293.820312 Z" id="Shape"></path>
            <path d="M274.511719,105.101562 L304.070312,117.589844 C306.203125,118.488281 308.449219,118.9375 310.695312,118.9375 C312.863281,118.9375 315.03125,118.519531 317.101562,117.679688 C321.316406,115.96875 324.609375,112.714844 326.378906,108.527344 L329.972656,100.015625 C331.742188,95.828125 331.777344,91.199219 330.066406,86.984375 C328.355469,82.769531 325.105469,79.476562 320.90625,77.703125 L285.8125,62.953125 L287.4375,57.089844 C287.457031,57.011719 287.476562,56.9375 287.496094,56.859375 C288.578125,52.296875 287.820312,47.585938 285.359375,43.59375 C282.902344,39.601562 279.035156,36.808594 274.476562,35.726562 L273.8125,35.566406 C270.835938,34.859375 267.851562,34.960938 265.089844,35.726562 C262.894531,31.050781 258.664062,27.378906 253.257812,26.09375 L252.601562,25.9375 C249.722656,25.253906 246.816406,25.308594 244.105469,26.011719 C243.878906,25.566406 243.632812,25.121094 243.367188,24.695312 C240.90625,20.703125 237.039062,17.90625 232.480469,16.824219 L231.820312,16.664062 C229.4375,16.101562 227.027344,16.039062 224.722656,16.453125 C224.316406,15.34375 223.796875,14.273438 223.164062,13.246094 C220.703125,9.246094 216.835938,6.453125 212.265625,5.371094 L211.621094,5.21875 C207.054688,4.132812 202.34375,4.894531 198.351562,7.351562 C194.390625,9.789062 191.609375,13.621094 190.507812,18.140625 L189.359375,22.414062 L143.855469,3.289062 C143.832031,3.28125 143.808594,3.277344 143.785156,3.265625 C143.664062,3.21875 143.539062,3.175781 143.417969,3.132812 C143.335938,3.105469 143.253906,3.078125 143.167969,3.054688 C143.0625,3.023438 142.957031,2.996094 142.847656,2.96875 C142.742188,2.945312 142.632812,2.914062 142.523438,2.898438 C142.4375,2.882812 142.351562,2.871094 142.265625,2.859375 C142.132812,2.839844 142,2.824219 141.867188,2.8125 C141.835938,2.8125 141.800781,2.804688 141.769531,2.800781 L98.5,0.015625 C95.777344,-0.171875 93.28125,1.367188 92.183594,3.835938 C91.082031,6.304688 91.636719,9.199219 93.570312,11.085938 L123.984375,40.789062 C123.996094,40.804688 124.003906,40.8125 124.015625,40.824219 L124.03125,40.835938 C124.046875,40.855469 124.066406,40.867188 124.085938,40.886719 C124.210938,41.007812 124.34375,41.121094 124.480469,41.234375 C124.546875,41.289062 124.613281,41.335938 124.683594,41.386719 C124.757812,41.441406 124.828125,41.496094 124.902344,41.550781 C124.921875,41.566406 124.941406,41.574219 124.960938,41.589844 C125.074219,41.664062 125.1875,41.730469 125.300781,41.796875 C126.125,42.324219 126.988281,42.796875 127.886719,43.175781 L155.558594,54.863281 C153.515625,60.855469 152.269531,67.972656 151.15625,74.382812 C147.625,94.640625 162.078125,115.652344 166.933594,122.023438 L166.957031,151.402344 L161.578125,151.402344 C158.007812,151.402344 155.117188,154.296875 155.117188,157.867188 L155.117188,399.941406 C155.117188,403.511719 158.007812,406.402344 161.578125,406.402344 L256.820312,406.402344 C260.386719,406.402344 263.28125,403.511719 263.28125,399.941406 L263.28125,238.242188 C263.28125,234.671875 260.386719,231.78125 256.820312,231.78125 C253.25,231.78125 250.355469,234.671875 250.355469,238.242188 L250.355469,393.480469 L168.039062,393.480469 L168.039062,197.566406 L250.355469,197.566406 L250.355469,215.519531 C250.355469,219.089844 253.25,221.980469 256.820312,221.980469 C260.386719,221.980469 263.28125,219.085938 263.28125,215.519531 L263.28125,157.867188 C263.28125,154.296875 260.386719,151.402344 256.820312,151.402344 L254.109375,151.402344 L254.167969,134.710938 C265.082031,127.480469 271.207031,114.925781 274.511719,105.101562 Z M308.800781,86.636719 L315.890625,89.617188 C316.898438,90.039062 317.679688,90.835938 318.09375,91.847656 C318.503906,92.863281 318.496094,93.976562 318.070312,94.988281 L314.472656,103.496094 C314.046875,104.511719 313.253906,105.289062 312.238281,105.703125 C311.226562,106.117188 310.109375,106.109375 309.101562,105.683594 L301.542969,102.492188 L308.800781,86.636719 Z M277.945312,91.40625 L282.34375,75.515625 L296.878906,81.621094 L289.632812,97.460938 L277.773438,92.453125 C277.851562,92.015625 277.90625,91.664062 277.945312,91.40625 Z M126.589844,25.269531 L115.082031,14.035156 L131.425781,15.085938 L126.589844,25.269531 Z M137.1875,33.074219 L144.539062,17.597656 L185.96875,35.007812 L181.457031,51.769531 L137.1875,33.074219 Z M250.355469,184.644531 L168.039062,184.644531 L168.039062,164.328125 L250.355469,164.328125 L250.355469,184.644531 Z M244.792969,125.242188 C242.628906,126.339844 241.261719,128.554688 241.253906,130.980469 L241.1875,150.738281 L179.878906,150.738281 L179.855469,119.773438 C179.855469,118.261719 179.316406,116.789062 178.34375,115.621094 C178.167969,115.414062 160.785156,94.382812 163.886719,76.605469 C164.863281,70.996094 165.945312,64.789062 167.5,59.90625 L179.183594,64.839844 C179.886719,66.730469 181.460938,68.269531 183.554688,68.828125 C186.996094,69.757812 190.546875,67.71875 191.472656,64.273438 L203.007812,21.421875 C203.027344,21.359375 203.039062,21.296875 203.054688,21.234375 C203.339844,20.03125 204.078125,19.007812 205.132812,18.359375 C206.183594,17.710938 207.425781,17.511719 208.640625,17.800781 L209.289062,17.953125 C210.492188,18.238281 211.511719,18.976562 212.160156,20.03125 C212.808594,21.078125 213.011719,22.324219 212.722656,23.53125 L212.066406,26.296875 L204.457031,52.671875 C203.464844,56.101562 205.441406,59.679688 208.871094,60.671875 C209.46875,60.84375 210.074219,60.925781 210.667969,60.925781 C213.472656,60.925781 216.054688,59.078125 216.871094,56.253906 L224.226562,30.769531 C225.339844,29.445312 227.109375,28.835938 228.828125,29.246094 L229.488281,29.402344 C230.691406,29.6875 231.710938,30.425781 232.363281,31.480469 C233,32.515625 233.199219,33.730469 232.933594,34.914062 L226.164062,57.78125 C225.152344,61.203125 227.105469,64.800781 230.527344,65.8125 C231.136719,65.992188 231.757812,66.078125 232.363281,66.078125 C235.152344,66.078125 237.726562,64.261719 238.554688,61.449219 L244.824219,40.285156 C245.914062,38.789062 247.777344,38.078125 249.617188,38.515625 L250.269531,38.671875 C252.753906,39.261719 254.296875,41.761719 253.707031,44.246094 L252.726562,48.371094 L247.21875,65.933594 C246.148438,69.339844 248.042969,72.964844 251.449219,74.035156 C252.09375,74.234375 252.742188,74.328125 253.386719,74.328125 C256.132812,74.328125 258.679688,72.5625 259.546875,69.800781 L265.128906,52.023438 C265.152344,51.945312 265.167969,51.867188 265.1875,51.789062 C265.207031,51.71875 265.230469,51.652344 265.246094,51.578125 C265.835938,49.097656 268.339844,47.554688 270.820312,48.144531 L271.480469,48.304688 C273.9375,48.886719 275.46875,51.335938 274.9375,53.789062 L265.382812,88.34375 C265.308594,88.613281 265.25,88.898438 265.210938,89.175781 C265.171875,89.449219 261.121094,116.960938 244.792969,125.242188 Z" id="Shape"></path>
            <path d="M127.816406,230.121094 L127.816406,200.058594 C127.816406,190.378906 119.941406,182.503906 110.261719,182.503906 L109.585938,182.503906 C106.523438,182.503906 103.644531,183.289062 101.136719,184.671875 C97.917969,180.628906 92.953125,178.035156 87.398438,178.035156 L86.722656,178.035156 C83.757812,178.035156 80.941406,178.761719 78.464844,180.078125 C75.242188,176.246094 70.417969,173.816406 65.035156,173.816406 L64.359375,173.816406 C61.90625,173.816406 59.546875,174.324219 57.394531,175.246094 C54.253906,170.492188 48.855469,167.34375 42.734375,167.34375 L42.058594,167.34375 C32.378906,167.34375 24.503906,175.222656 24.503906,184.902344 L24.503906,201.820312 C17.453125,201.058594 11.945312,202.410156 7.777344,205.894531 C-1.257812,213.453125 -0.347656,228.464844 0.53125,242.976562 C1.734375,262.785156 19.390625,279.40625 26.195312,285.105469 L26.195312,296.21875 L22.804688,296.21875 C19.234375,296.21875 16.34375,299.109375 16.34375,302.679688 L16.34375,399.941406 C16.34375,403.511719 19.234375,406.402344 22.804688,406.402344 L118.046875,406.402344 C121.613281,406.402344 124.507812,403.511719 124.507812,399.941406 L124.507812,302.679688 C124.507812,299.109375 121.613281,296.21875 118.046875,296.21875 L114.027344,296.21875 L114.027344,278.570312 C129.925781,262.476562 128.117188,233.761719 127.816406,230.121094 Z M111.582031,393.480469 L29.265625,393.480469 L29.265625,342.382812 L111.582031,342.382812 L111.582031,393.480469 Z M111.582031,329.460938 L29.265625,329.460938 L29.265625,309.140625 L111.582031,309.140625 L111.582031,329.460938 Z M103.386719,270.824219 C101.9375,272.054688 101.101562,273.855469 101.101562,275.757812 L101.101562,296.21875 L39.113281,296.21875 L39.113281,282.003906 C39.113281,279.953125 38.144531,278.03125 36.503906,276.8125 C30.394531,272.28125 14.339844,257.222656 13.429688,242.195312 C12.808594,231.941406 12.035156,219.183594 16.070312,215.804688 C17.570312,214.550781 20.511719,214.230469 24.503906,214.855469 L24.503906,223.632812 C24.503906,227.199219 27.394531,230.09375 30.964844,230.09375 C34.535156,230.09375 37.425781,227.199219 37.425781,223.632812 L37.425781,184.898438 C37.425781,182.34375 39.503906,180.265625 42.058594,180.265625 L42.734375,180.265625 C45.289062,180.265625 47.367188,182.34375 47.367188,184.898438 L47.367188,209.84375 C47.367188,213.414062 50.257812,216.304688 53.828125,216.304688 C57.398438,216.304688 60.289062,213.414062 60.289062,209.84375 L60.289062,189.175781 C61.085938,187.695312 62.632812,186.738281 64.359375,186.738281 L65.035156,186.738281 C67.589844,186.738281 69.667969,188.816406 69.667969,191.371094 L69.667969,209.847656 C69.667969,213.414062 72.558594,216.308594 76.128906,216.308594 C79.699219,216.308594 82.589844,213.414062 82.589844,209.847656 L82.589844,193.488281 C83.367188,191.949219 84.941406,190.953125 86.722656,190.953125 L87.394531,190.953125 C89.949219,190.953125 92.027344,193.035156 92.027344,195.589844 L92.027344,213.019531 C92.027344,216.589844 94.921875,219.480469 98.488281,219.480469 C102.058594,219.480469 104.953125,216.585938 104.953125,213.019531 L104.953125,200.058594 C104.953125,197.503906 107.03125,195.425781 109.585938,195.425781 L110.257812,195.425781 C112.8125,195.425781 114.890625,197.503906 114.890625,200.058594 L114.890625,230.402344 C114.890625,230.609375 114.902344,230.816406 114.921875,231.023438 C115.667969,238.746094 115.046875,260.953125 103.386719,270.824219 Z" id="Shape"></path>
        </g>
    </g>
</svg>
