<?xml version="1.0" encoding="UTF-8"?>
<svg width="89px" height="89px" viewBox="0 0 89 89" version="1.1" xmlns="http://www.w3.org/2000/svg" xmlns:xlink="http://www.w3.org/1999/xlink">
    <!-- Generator: Sketch 51.2 (57519) - http://www.bohemiancoding.com/sketch -->
    <title>Group 6circle</title>
    <desc>Created with Sketch.</desc>
    <defs>
        <polygon id="path-1" points="0 0 46 0 46 46 0 46"></polygon>
    </defs>
    <g id="Page-1" stroke="none" stroke-width="1" fill="none" fill-rule="evenodd">
        <g id="Desktop-HD-Copy" transform="translate(-447.000000, -1411.000000)">
            <g id="Group-6" transform="translate(447.000000, 1411.000000)">
                <circle id="Oval-Copy-8" fill="#5BB0A6" cx="44.5" cy="44.5" r="44.5"></circle>
                <g id="fists" transform="translate(22.000000, 22.000000)">
                    <mask id="mask-2" fill="white">
                        <use xlink:href="#path-1"></use>
                    </mask>
                    <g id="Clip-2"></g>
                    <path d="M43.774375,14.3715138 C43.481,14.3715138 43.20025,14.4279095 42.943375,14.5300882 C42.65675,13.6440463 41.8145,13 40.82275,13 C40.257375,13 39.74025,13.2096637 39.347125,13.5538379 C38.954125,13.2096637 38.437,13 37.871625,13 C37.305625,13 36.788625,13.2096637 36.3955,13.5538379 C36.0025,13.2096637 35.485875,13 34.919875,13 C33.69725,13 32.703125,13.9857524 32.703125,15.1957302 C32.69725,17.3133456 32.69725,18.3058853 32.69975,18.7817317 C32.255375,19.1909399 32,19.7651394 32,20.3874666 L32,23.7983576 C32,26.1121856 33.1865,28.2795329 35.125,29.5545446 L35.125,45.259575 C35.125,45.668413 35.4605,46 35.875,46 C36.289,46 36.625,45.668413 36.625,45.259575 L36.625,29.143362 C36.625,28.8786601 36.481875,28.6348134 36.2505,28.502154 C34.55425,27.5333079 33.5,25.7308667 33.5,23.7983576 L33.5,20.3874666 C33.5,20.1401647 33.621625,19.9179138 33.82525,19.7877224 C33.8335,19.7829096 33.84175,19.7790841 33.850125,19.7742714 C33.962875,19.7067693 34.09275,19.6711055 34.225625,19.6711055 L38.006875,19.6711055 C38.40725,19.6711055 38.732875,19.9925733 38.732875,20.3874666 C38.732875,20.7827301 38.40725,21.104198 38.006875,21.104198 L35.701125,21.104198 C35.5025,21.104198 35.3115,21.1818192 35.170875,21.3211425 C35.03025,21.4599722 34.951125,21.6479167 34.951125,21.8446229 L34.951125,24.1415446 C34.951125,24.4375912 35.129875,24.7046378 35.40525,24.8217483 L38.63675,26.1926451 C38.732875,26.2336153 38.8335,26.2529897 38.932125,26.2529897 C39.223125,26.2529897 39.4995,26.0851601 39.621625,25.8051561 C39.785125,25.4291436 39.609375,24.9938971 39.229,24.8323611 L36.451125,23.6537279 L36.451125,22.5850479 L38.006875,22.5850479 C39.01125,22.5850479 39.861875,21.9247122 40.138125,21.0207768 C40.354,21.0902533 40.584,21.1278916 40.82325,21.1278916 C41.388625,21.1278916 41.90575,20.9185981 42.298875,20.5744239 C42.691875,20.9185981 43.209,21.1278916 43.774375,21.1278916 C44.028375,21.1278916 44.2725,21.0849469 44.5,21.0073257 L44.5,23.9526128 C44.5,26.7552447 42.190375,29.0353833 39.3515,29.0353833 C38.9375,29.0353833 38.6015,29.3669703 38.6015,29.7758083 C38.6015,30.1845229 38.9375,30.5162333 39.3515,30.5162333 C40.319875,30.5162333 41.23925,30.3094079 42.069875,29.9401826 L42.069875,45.259575 C42.069875,45.668413 42.40525,46 42.819875,46 C43.233875,46 43.569875,45.668413 43.569875,45.259575 L43.569875,29.0223025 C45.05275,27.8176311 46,25.992607 46,23.9526128 L46,16.5690951 C46,15.3572663 45.0015,14.3715138 43.774375,14.3715138 Z M34.19875,18.1912428 C34.19825,17.3456775 34.200625,16.0933721 34.203125,15.1977047 C34.203125,14.8029348 34.524875,14.4813435 34.919875,14.4813435 C35.32025,14.4813435 35.646,14.8029348 35.646,15.1977047 L35.646,18.1902556 L34.225625,18.1902556 C34.21675,18.1902556 34.2075,18.1912428 34.19875,18.1912428 Z M38.006875,18.1902556 L37.146,18.1902556 L37.146,15.1977047 C37.146,14.8029348 37.47125,14.4813435 37.871625,14.4813435 C38.2715,14.4813435 38.597125,14.8029348 38.597125,15.1977047 L38.597125,18.2692342 C38.409125,18.2181449 38.211375,18.1902556 38.006875,18.1902556 Z M40.82275,19.6470417 C40.422875,19.6470417 40.097125,19.325944 40.097125,18.9306805 L40.097125,15.1977047 C40.097125,14.8029348 40.422875,14.4813435 40.82275,14.4813435 C41.223125,14.4813435 41.548875,14.8029348 41.548875,15.1977047 L41.548875,18.9306805 C41.548875,19.325944 41.223125,19.6470417 40.82275,19.6470417 Z M43.774375,19.6470417 C43.374,19.6470417 43.048875,19.325944 43.048875,18.9306805 L43.048875,16.5681079 C43.049375,16.173338 43.3745,15.8523638 43.774375,15.8523638 C44.174375,15.8523638 44.5,16.1738316 44.5,16.5690951 L44.5,18.9306805 C44.5,19.325944 44.174375,19.6470417 43.774375,19.6470417 Z" id="Fill-1" fill="#000000" mask="url(#mask-2)"></path>
                    <path d="M12.6523293,17.4383479 C12.3219993,17.4383479 12.006896,17.503925 11.7213651,17.6227608 C11.4372184,16.686325 10.5341907,16 9.4674452,16 C8.85309441,16 8.29360985,16.2274063 7.87481439,16.5986474 C7.45601893,16.2274063 6.89615685,16 6.28218358,16 C5.6682103,16 5.10834822,16.2274063 4.68955276,16.5986474 C4.27075731,16.2274063 3.71127275,16 3.09679611,16 C1.80794302,16 0.758940931,17.0104666 0.758940931,18.2507548 C0.752523092,20.5099634 0.752523092,21.5477235 0.755543251,22.0355058 C0.27621876,22.4558995 0,23.0516485 0,23.6975162 L0,27.2757538 C0,29.6953424 1.28155438,31.960227 3.37263735,33.2863814 L3.37263735,45.2753915 C3.37263735,45.6753754 3.71076939,46 4.12767725,46 C4.54445927,46 4.88271714,45.6753754 4.88271714,45.2753915 L4.88271714,32.883016 C4.88271714,32.6244515 4.73913372,32.3853307 4.50570055,32.255505 C2.65786626,31.2299424 1.51007978,29.3216859 1.51007978,27.2757538 L1.51007978,23.6975162 C1.51007978,23.4196288 1.6511464,23.1696389 1.88709637,23.0233888 C1.89590517,23.0186788 1.90534317,23.0144519 1.91415196,23.0092589 C2.04389299,22.9337788 2.19389424,22.8936838 2.3476707,22.8936838 L6.42866131,22.8936838 C6.89024237,22.8936838 7.26574887,23.2540558 7.26574887,23.6975162 C7.26574887,24.1404935 6.89024237,24.5013486 6.42866131,24.5013486 L3.94030151,24.5013486 C3.73983842,24.5013486 3.54805829,24.5773117 3.40648831,24.7136589 C3.26441497,24.849523 3.18526162,25.0335735 3.18526162,25.2259571 L3.18526162,27.6357635 C3.18526162,27.9253653 3.36470944,28.1867075 3.64193492,28.3013164 L7.12908665,29.7396643 C7.2264868,29.7797593 7.32766214,29.7987199 7.42707573,29.7987199 C7.71952785,29.7987199 7.99826341,29.6344753 8.12108323,29.3604525 C8.28580777,28.9924721 8.10837339,28.5665231 7.72544233,28.4084377 L4.6953414,27.1582464 L4.6953414,25.9505656 L6.42815795,25.9505656 C7.50710996,25.9505656 8.41806559,25.2481784 8.69126419,24.2947144 C8.93463871,24.3768367 9.19563084,24.4221247 9.4674452,24.4221247 C10.0814185,24.4221247 10.6412805,24.1947184 11.0596985,23.8229942 C11.4784939,24.1947184 12.038356,24.4221247 12.6523293,24.4221247 C12.9472982,24.4221247 13.2299348,24.368866 13.4899202,24.2730969 L13.4899202,27.437583 C13.4899202,30.4067872 10.9731206,32.8221489 7.87921879,32.8221489 C7.46243677,32.8221489 7.12417889,33.1466527 7.12417889,33.5467574 C7.12417889,33.9467413 7.46243677,34.2713659 7.87921879,34.2713659 C8.94596431,34.2713659 9.95759193,34.0434765 10.8669116,33.6382996 L10.8669116,45.2753915 C10.8669116,45.6753754 11.2051695,46 11.6219515,46 C12.0388594,46 12.3769914,45.6753754 12.3769914,45.2753915 L12.3769914,32.7310897 C13.9765434,31.4766716 15,29.5698643 15,27.437583 L15,19.6913973 C15,18.4488145 13.9470969,17.4383479 12.6523293,17.4383479 Z M2.26411295,21.4472445 C2.26360959,20.5721589 2.26612639,19.2446761 2.26902071,18.2525663 C2.26902071,17.809589 2.64012282,17.449217 3.09679611,17.449217 C3.55837717,17.449217 3.93451287,17.8091059 3.93451287,18.2520832 L3.93451287,21.4444668 L2.3476707,21.4444668 C2.31973423,21.4444668 2.29167191,21.4463991 2.26411295,21.4472445 Z M6.42815795,21.4444668 L5.44459266,21.4444668 L5.44459266,18.2535325 C5.44459266,17.809589 5.82060252,17.4487339 6.28218358,17.4487339 C6.74426799,17.4487339 7.11977449,17.809589 7.11977449,18.2525663 L7.11977449,21.5444628 C6.90106461,21.4793688 6.66901568,21.4444668 6.42815795,21.4444668 Z M9.4674452,22.9729077 C9.00536078,22.9729077 8.62985428,22.6120527 8.62985428,22.1690753 L8.62985428,18.2525663 C8.62985428,17.809589 9.00536078,17.4487339 9.4674452,17.4487339 C9.92902625,17.4487339 10.305162,17.809589 10.305162,18.2525663 L10.305162,22.1690753 C10.305162,22.6120527 9.92902625,22.9729077 9.4674452,22.9729077 Z M12.6523293,22.9729077 C12.1907482,22.9729077 11.8152417,22.6120527 11.8152417,22.1690753 L11.8152417,19.6913973 C11.8152417,19.2479369 12.1907482,18.8875649 12.6523293,18.8875649 C13.1144137,18.8875649 13.4899202,19.2479369 13.4899202,19.6913973 L13.4899202,22.1690753 C13.4899202,22.6120527 13.1144137,22.9729077 12.6523293,22.9729077 Z" id="Fill-3" fill="#000000" mask="url(#mask-2)"></path>
                    <path d="M31,7.31840426 L31,4.32253191 C31,2.89836702 29.8501272,1.74004787 28.4366178,1.74004787 C28.0163295,1.74004787 27.6197211,1.84232447 27.2696225,2.0233883 C27.015458,0.867393617 25.989328,0 24.7664724,0 C24.0483028,0 23.3980156,0.29912234 22.9317032,0.780898936 C22.4658766,0.29912234 21.815468,0 21.0968127,0 C20.3781573,0 19.7278702,0.29912234 19.2620435,0.780898936 C18.7962169,0.29912234 18.145444,0 17.4272744,0 C16.0193511,0 14.8742142,1.15844149 14.8742142,2.58064894 C14.8666852,5.42787766 14.867171,6.66853191 14.8704497,7.2213883 C14.3187682,7.705 14,8.40613298 14,9.16794681 L14,13.4961064 C14,16.3998564 15.4785988,19.1176489 17.8854506,20.688867 L17.8854506,45.2659574 C17.8854506,45.6711489 18.2118692,46 18.6140637,46 C19.0167438,46 19.3426767,45.6711489 19.3426767,45.2659574 L19.3426767,20.2779255 C19.3426767,20.0159947 19.2041188,19.7737606 18.9793417,19.642367 C16.806739,18.3763883 15.4572261,16.0213351 15.4572261,13.4961064 L15.4572261,9.16794681 C15.4572261,8.78171809 15.6450869,8.43427128 15.9591191,8.23118617 C15.9700483,8.22543617 15.9803703,8.22066489 15.9908138,8.21405851 C16.1625236,8.10884574 16.360342,8.05342553 16.5633822,8.05342553 L21.2652437,8.05342553 C21.8752143,8.05342553 22.3713998,8.55330851 22.3713998,9.16794681 C22.3713998,9.78246277 21.8752143,10.2823457 21.2652437,10.2823457 L18.3982728,10.2823457 C18.2051903,10.2823457 18.0196368,10.3597872 17.8830219,10.4974202 C17.7464069,10.6355426 17.6696597,10.821867 17.6696597,11.0163883 L17.6696597,13.9310266 C17.6696597,14.2245213 17.843191,14.4897553 18.1107135,14.605367 L22.1285288,16.3452926 C22.2220341,16.3860319 22.3197897,16.405117 22.4156023,16.405117 C22.6983042,16.405117 22.9667981,16.238734 23.0853192,15.9606543 C23.2442782,15.5883723 23.0735399,15.1568777 22.7040117,14.9962447 L19.1273716,13.4479043 L19.1273716,11.7509202 L21.2652437,11.7509202 C22.4975713,11.7509202 23.5294088,10.8697021 23.7736156,9.70025 C24.0791474,9.83029787 24.415038,9.90198936 24.7664724,9.90198936 C25.4851277,9.90198936 26.1355363,9.60274468 26.6017272,9.12157979 C27.0675539,9.60274468 27.7179625,9.90198936 28.4366178,9.90198936 C28.832619,9.90198936 29.2078547,9.81109043 29.5427739,9.6491117 L29.5427739,13.6920957 C29.5427739,17.3613298 26.5795045,20.3466809 22.9374107,20.3466809 C22.5346091,20.3466809 22.2087976,20.6755319 22.2087976,21.0807234 C22.2087976,21.4860372 22.5346091,21.814766 22.9374107,21.814766 C24.2237771,21.814766 25.4400751,21.5080585 26.5206083,20.9656011 L26.5206083,45.2659574 C26.5206083,45.6711489 26.847027,46 27.2492214,46 C27.6515372,46 27.9778344,45.6711489 27.9778344,45.2659574 L27.9778344,20.0251702 C29.8184325,18.5350638 31,16.250234 31,13.6920957 L31,7.31840426 Z M16.3257329,6.59781915 C16.3252472,5.54593617 16.3281616,3.8422234 16.3314404,2.58248404 C16.3314404,1.96796809 16.8228899,1.46808511 17.4272744,1.46808511 C18.0367592,1.46808511 18.5334305,1.96796809 18.5334305,2.58248404 L18.5334305,6.58534043 L16.5633822,6.58534043 C16.4837205,6.58534043 16.4045445,6.59060106 16.3257329,6.59781915 Z M21.2652437,6.58534043 L19.9906566,6.58534043 L19.9906566,2.58248404 C19.9906566,1.96796809 20.4868421,1.46808511 21.0968127,1.46808511 C21.7069047,1.46808511 22.2030902,1.96796809 22.2030902,2.58248404 L22.2030902,6.76505851 C21.9122521,6.64981383 21.5963984,6.58534043 21.2652437,6.58534043 Z M24.7664724,8.43390426 C24.1565018,8.43390426 23.6603163,7.93402128 23.6603163,7.31938298 L23.6603163,2.58248404 C23.6603163,1.96796809 24.1565018,1.46808511 24.7664724,1.46808511 C25.3765644,1.46808511 25.8726284,1.96796809 25.8726284,2.58248404 L25.8726284,7.31938298 C25.8731142,7.93402128 25.3765644,8.43390426 24.7664724,8.43390426 Z M28.4366178,8.43390426 C27.8265258,8.43390426 27.3298546,7.93402128 27.3298546,7.31938298 L27.3298546,4.32155319 C27.3303403,3.7075266 27.8265258,3.20813298 28.4366178,3.20813298 C29.0461026,3.20813298 29.5427739,3.70801596 29.5427739,4.32253191 L29.5427739,7.3203617 C29.5422881,7.9343883 29.0461026,8.43390426 28.4366178,8.43390426 Z" id="Fill-4" fill="#000000" mask="url(#mask-2)"></path>
                </g>
            </g>
        </g>
    </g>
</svg>