<?xml version="1.0" encoding="UTF-8"?>
<svg width="462px" height="465px" viewBox="0 0 462 465" version="1.1" xmlns="http://www.w3.org/2000/svg" xmlns:xlink="http://www.w3.org/1999/xlink">
    <!-- Generator: Sketch 51.2 (57519) - http://www.bohemiancoding.com/sketch -->
    <title>Group 13</title>
    <desc>Created with Sketch.</desc>
    <defs></defs>
    <g id="Page-1" stroke="none" stroke-width="1" fill="none" fill-rule="evenodd">
        <g id="Desktop-HD-Copy" transform="translate(-159.000000, -176.000000)">
            <g id="Group-13" transform="translate(159.000000, 176.000000)">
                <g id="Group-12">
                    <path d="M230.007204,73.8159455 C142.751856,73.8159455 71.763233,145.453855 71.763233,233.49273 C71.763233,321.546145 142.751856,393.184054 230.007204,393.184054 C317.262552,393.184054 388.236767,321.546145 388.236767,233.49273 C388.236767,145.453855 317.262552,73.8159455 230.007204,73.8159455 Z M66,233.49273 C66,142.240545 139.582078,68 230.007204,68 C320.43233,68 394,142.240545 394,233.49273 C394,324.759455 320.43233,399 230.007204,399 C139.582078,399 66,324.759455 66,233.49273 Z" id="Fill-110" fill="#FFFFFF"></path>
                    <path d="M228,396.092027 L228,70.9079728 C228,69.3085877 229.35,68 231,68 C232.65,68 234,69.3085877 234,70.9079728 L234,396.092027 C234,397.705952 232.65,399 231,399 C229.35,399 228,397.705952 228,396.092027 Z" id="Fill-111" fill="#FFFFFF"></path>
                    <path d="M218.550863,398.520181 C163.130323,361.923109 131.17964,297.830977 133.080266,227.094085 C134.923298,158.988926 167.709105,98.1828243 218.680451,68.3904519 C220.048326,67.5907543 221.819365,68.0560329 222.611292,69.4518688 C223.40322,70.8477047 222.942462,72.6215795 221.560188,73.4212771 C172.316684,102.210392 140.625177,161.155379 138.83974,227.239485 C136.98231,295.955323 167.968281,358.1718 221.689777,393.663836 C223.028854,394.536233 223.40322,396.339188 222.5249,397.691404 C221.97775,398.534721 221.056234,399 220.12032,399 C219.57317,399 219.02602,398.8546 218.550863,398.520181 Z" id="Fill-112" fill="#251F19"></path>
                    <path d="M236.387197,396.560035 C235.594165,395.163705 236.055566,393.389202 237.439767,392.574676 C287.285438,363.469921 319.36719,304.169528 321.155117,237.829304 C322.9863,169.990934 292.259912,108.508775 238.968156,73.3387114 C237.64163,72.4660051 237.266742,70.6624121 238.131868,69.3097173 C239.011413,67.9715676 240.79934,67.5933949 242.125866,68.4806463 C270.92014,87.4765534 292.995269,112.945032 307.731247,144.173373 C321.169536,172.638143 327.802168,205.088272 326.922623,237.9893 C325.077021,306.336748 291.899443,367.498915 240.32352,397.607282 C239.876539,397.883639 239.371882,398 238.881644,398 C237.886749,398 236.920692,397.490921 236.387197,396.560035 Z" id="Fill-113" fill="#251F19"></path>
                    <path d="M218.550863,398.520181 C163.130323,361.923109 131.17964,297.830977 133.080266,227.094085 C134.923298,158.988926 167.709105,98.1828243 218.680451,68.3904519 C220.048326,67.5907543 221.819365,68.0560329 222.611292,69.4518688 C223.40322,70.8477047 222.942462,72.6215795 221.560188,73.4212771 C172.316684,102.210392 140.625177,161.155379 138.83974,227.239485 C136.98231,295.955323 167.968281,358.1718 221.689777,393.663836 C223.028854,394.536233 223.40322,396.339188 222.5249,397.691404 C221.97775,398.534721 221.056234,399 220.12032,399 C219.57317,399 219.02602,398.8546 218.550863,398.520181 Z" id="Fill-114" fill="#FFFFFF"></path>
                    <path d="M236.387197,396.560035 C235.594165,395.163705 236.055566,393.389202 237.439767,392.574676 C287.285438,363.469921 319.36719,304.169528 321.155117,237.829304 C322.9863,169.990934 292.259912,108.508775 238.968156,73.3387114 C237.64163,72.4660051 237.266742,70.6624121 238.131868,69.3097173 C239.011413,67.9715676 240.79934,67.5933949 242.125866,68.4806463 C270.92014,87.4765534 292.995269,112.945032 307.731247,144.173373 C321.169536,172.638143 327.802168,205.088272 326.922623,237.9893 C325.077021,306.336748 291.899443,367.498915 240.32352,397.607282 C239.876539,397.883639 239.371882,398 238.881644,398 C237.886749,398 236.920692,397.490921 236.387197,396.560035 Z" id="Fill-115" fill="#FCFCFC"></path>
                    <path d="M68.8816165,237 C67.2967274,237 66,235.665 66,234 C66,232.35 67.2967274,231 68.8816165,231 L391.118383,231 C392.717681,231 394,232.35 394,234 C394,235.665 392.717681,237 391.118383,237 L68.8816165,237 Z" id="Fill-116" fill="#FFFCF9"></path>
                    <path d="M90.8815803,153 C89.2967111,153 88,151.665 88,150 C88,148.35 89.2967111,147 90.8815803,147 L368.11842,147 C369.717697,147 371,148.35 371,150 C371,151.665 369.717697,153 368.11842,153 L90.8815803,153 Z" id="Fill-117" fill="#FBFBFB"></path>
                    <path d="M90.8815803,321 C89.2967111,321 88,319.65 88,318 C88,316.335 89.2967111,315 90.8815803,315 L368.11842,315 C369.717697,315 371,316.335 371,318 C371,319.65 369.717697,321 368.11842,321 L90.8815803,321 Z" id="Fill-118" fill="#FFFDFB"></path>
                    <path d="M154.492923,331 C148.137846,331 143,325.638769 143,319.007385 C143,312.376 148.137846,307 154.492923,307 C160.848,307 166,312.376 166,319.007385 C166,325.638769 160.848,331 154.492923,331 Z" id="Fill-119" fill="#69C6E2"></path>
                    <path d="M366.507077,332 C360.152,332 355,326.624 355,319.992615 C355,313.376 360.152,308 366.507077,308 C372.848,308 378,313.376 378,319.992615 C378,326.624 372.848,332 366.507077,332 Z" id="Fill-120" fill="#DC4B3F"></path>
                    <path d="M69.4929231,246 C63.1378462,246 58,240.624 58,233.992615 C58,227.376 63.1378462,222 69.4929231,222 C75.848,222 81,227.376 81,233.992615 C81,240.624 75.848,246 69.4929231,246 Z" id="Fill-121" fill="#DC4B3F"></path>
                    <path d="M392.492923,246 C386.137846,246 381,240.624 381,233.992615 C381,227.361231 386.137846,222 392.492923,222 C398.848,222 404,227.361231 404,233.992615 C404,240.624 398.848,246 392.492923,246 Z" id="Fill-122" fill="#69C6E2"></path>
                    <path d="M152.507077,162 C146.152,162 141,156.624 141,149.992615 C141,143.376 146.152,138 152.507077,138 C158.848,138 164,143.376 164,149.992615 C164,156.624 158.848,162 152.507077,162 Z" id="Fill-123" fill="#69C6E2"></path>
                    <path d="M305.507077,162 C299.152,162 294,156.624 294,149.992615 C294,143.376 299.152,138 305.507077,138 C311.848,138 317,143.376 317,149.992615 C317,156.624 311.848,162 305.507077,162 Z" id="Fill-124" fill="#DC4B3F"></path>
                    <path d="M230.492923,245 C224.137846,245 219,239.624 219,232.992615 C219,226.361231 224.137846,221 230.492923,221 C236.848,221 242,226.361231 242,232.992615 C242,239.624 236.848,245 230.492923,245 Z" id="Fill-125" fill="#D5D4CF"></path>
                    <path d="M34.7228502,232.507259 C34.7228502,123.396978 122.604696,34.947232 231,34.947232 L231,0 C103.41841,0 0,104.101227 0,232.507259 C0,360.913292 103.41841,465 231,465 C358.192094,465 461.35084,361.566647 462,233.712336 L427.262724,233.712336 C426.613564,342.256377 339.005808,430.052768 231,430.052768 C122.604696,430.052768 34.7228502,341.603022 34.7228502,232.507259 Z" id="Fill-126" fill="#D5D4CF"></path>
                    <path d="M231,34.9902466 C339.40296,34.9902466 427.279318,123.54886 427.279318,232.79344 C427.279318,233.200472 427.264893,233.592968 427.250468,234 L461.985575,234 C461.985575,233.592968 462,233.200472 462,232.79344 C462,104.22936 358.573623,0 231,0 L231,34.9902466 Z" id="Fill-127" fill="#DC4B3F"></path>
                    <path d="M303.931731,454 C338.278339,442.432708 369.004978,422.931903 394,397.640214 L369.536481,373 C348.305078,394.49866 322.189589,411.089544 293,420.919571 L303.931731,454 Z" id="Fill-128" fill="#5BB0A6"></path>
                    <path d="M369,373.294034 L393.603643,398 C435.255025,355.962117 461,298.000354 461,234 L426.211055,234 C426.211055,288.347318 404.366834,337.570543 369,373.294034 Z" id="Fill-129" fill="#69C6E2"></path>
                </g>
            </g>
        </g>
    </g>
</svg>