<?xml version="1.0" encoding="UTF-8"?>
<svg width="114px" height="153px" viewBox="0 0 114 153" version="1.1" xmlns="http://www.w3.org/2000/svg" xmlns:xlink="http://www.w3.org/1999/xlink">
    <!-- Generator: Sketch 48.2 (47327) - http://www.bohemiancoding.com/sketch -->
    <title>002-verified-list-of-exercises-of-a-gymnast-on-a-c.eps</title>
    <desc>Created with Sketch.</desc>
    <defs></defs>
    <g id="Page-1" stroke="none" stroke-width="1" fill="none" fill-rule="evenodd">
        <g id="002-verified-list-of-exercises-of-a-gymnast-on-a-c.eps" fill="#000" fill-rule="nonzero">
            <path d="M18.328125,56.363281 C18.328125,54.988281 19.445312,53.867188 20.824219,53.867188 L80.265625,53.867188 C81.644531,53.867188 82.757812,54.984375 82.757812,56.363281 C82.757812,57.742188 81.644531,58.859375 80.265625,58.859375 L20.824219,58.859375 C19.445312,58.855469 18.328125,57.746094 18.328125,56.363281 Z M20.824219,80.476562 L80.265625,80.476562 C81.644531,80.476562 82.757812,79.355469 82.757812,77.980469 C82.757812,76.613281 81.644531,75.488281 80.265625,75.488281 L20.824219,75.488281 C19.445312,75.488281 18.328125,76.605469 18.328125,77.980469 C18.328125,79.359375 19.445312,80.476562 20.824219,80.476562 Z M46.527344,97.097656 L20.828125,97.097656 C19.453125,97.097656 18.332031,98.222656 18.332031,99.589844 C18.332031,100.972656 19.453125,102.085938 20.828125,102.085938 L46.527344,102.085938 C47.90625,102.085938 49.019531,100.972656 49.019531,99.589844 C49.019531,98.210938 47.90625,97.097656 46.527344,97.097656 Z M43.199219,118.714844 L20.828125,118.714844 C19.453125,118.714844 18.332031,119.832031 18.332031,121.210938 C18.332031,122.582031 19.453125,123.703125 20.828125,123.703125 L43.199219,123.703125 C44.578125,123.703125 45.695312,122.582031 45.695312,121.210938 C45.695312,119.832031 44.578125,118.714844 43.199219,118.714844 Z M113.652344,121.617188 C113.652344,138.925781 99.585938,153 82.273438,153 C74.179688,153 66.824219,149.902344 61.253906,144.855469 C61.246094,144.855469 61.238281,144.867188 61.226562,144.867188 L3.433594,144.867188 C2.054688,144.867188 0.941406,143.742188 0.941406,142.371094 L0.941406,25.707031 C0.941406,24.328125 2.054688,23.210938 3.433594,23.210938 L24.5,23.210938 L24.5,16.359375 C24.5,14.980469 25.617188,13.863281 26.992188,13.863281 L37.214844,13.863281 L37.214844,13.738281 C37.214844,6.386719 43.199219,0.40625 50.554688,0.40625 C57.90625,0.40625 63.886719,6.386719 63.886719,13.738281 L63.886719,13.863281 L74.105469,13.863281 C75.480469,13.863281 76.601562,14.980469 76.601562,16.355469 L76.601562,23.210938 L97.660156,23.210938 C99.039062,23.210938 100.152344,24.328125 100.152344,25.703125 L100.152344,95.859375 C108.304688,101.535156 113.652344,110.960938 113.652344,121.617188 Z M29.488281,31.070312 L71.609375,31.070312 L71.609375,18.855469 L61.03125,18.855469 C60.269531,18.855469 59.539062,18.503906 59.0625,17.894531 C58.585938,17.285156 58.425781,16.492188 58.613281,15.75 C58.808594,14.984375 58.898438,14.351562 58.898438,13.742188 C58.898438,9.140625 55.152344,5.398438 50.546875,5.398438 C45.945312,5.398438 42.199219,9.140625 42.199219,13.742188 C42.199219,14.351562 42.289062,15.007812 42.476562,15.761719 C42.660156,16.503906 42.492188,17.292969 42.023438,17.898438 C41.554688,18.503906 40.828125,18.855469 40.058594,18.855469 L29.488281,18.855469 L29.488281,31.070312 Z M5.929688,139.867188 L56.792969,139.867188 C53.09375,134.722656 50.886719,128.429688 50.886719,121.617188 C50.886719,104.316406 64.964844,90.226562 82.265625,90.226562 C86.859375,90.226562 91.21875,91.25 95.15625,93.03125 L95.15625,28.195312 L76.59375,28.195312 L76.59375,33.550781 C76.59375,34.929688 75.472656,36.046875 74.097656,36.046875 L26.988281,36.046875 C25.613281,36.046875 24.492188,34.929688 24.492188,33.550781 L24.492188,28.195312 L5.925781,28.195312 L5.929688,139.867188 Z M108.664062,121.617188 C108.664062,107.066406 96.824219,95.214844 82.273438,95.214844 C67.722656,95.214844 55.878906,107.0625 55.878906,121.617188 C55.878906,136.175781 67.722656,148.011719 82.273438,148.011719 C96.824219,148.011719 108.664062,136.175781 108.664062,121.617188 Z M96.027344,111.222656 L80.753906,125.871094 L70.414062,117.609375 C69.339844,116.753906 67.773438,116.929688 66.90625,118 C66.050781,119.082031 66.226562,120.640625 67.296875,121.507812 L79.339844,131.140625 C79.796875,131.503906 80.347656,131.679688 80.898438,131.679688 C81.519531,131.679688 82.144531,131.445312 82.621094,130.980469 L99.472656,114.824219 C100.460938,113.878906 100.5,112.285156 99.542969,111.296875 C98.589844,110.292969 97.019531,110.273438 96.027344,111.222656 Z" id="Shape"></path>
        </g>
    </g>
</svg>
