<?xml version="1.0" encoding="UTF-8"?>
<svg width="89px" height="89px" viewBox="0 0 89 89" version="1.1" xmlns="http://www.w3.org/2000/svg" xmlns:xlink="http://www.w3.org/1999/xlink">
    <!-- Generator: Sketch 51.2 (57519) - http://www.bohemiancoding.com/sketch -->
    <title>Group 9</title>
    <desc>Created with Sketch.</desc>
    <defs></defs>
    <g id="Page-1" stroke="none" stroke-width="1" fill="none" fill-rule="evenodd">
        <g id="Desktop-HD-Copy" transform="translate(-925.000000, -1411.000000)">
            <g id="Group-9" transform="translate(925.000000, 1411.000000)">
                <circle id="Oval-Copy-9" fill="#77D1F6" cx="44.5" cy="44.5" r="44.5"></circle>
                <path d="M32.0167607,37.357617 C32.0167607,36.8851643 32.405078,36.496847 32.8775307,36.496847 L53.4475606,36.496847 C53.917856,36.496847 54.3061732,36.8851643 54.3061732,37.357617 C54.3061732,37.838699 53.917856,38.2248589 53.4475606,38.2248589 L32.8775307,38.2248589 C32.405078,38.2248589 32.0167607,37.838699 32.0167607,37.357617 Z M32.8775307,45.6999668 L53.4475606,45.6999668 C53.917856,45.6999668 54.3061732,45.3116495 54.3061732,44.8413541 C54.3061732,44.3689014 53.917856,43.9805841 53.4475606,43.9805841 L32.8775307,43.9805841 C32.405078,43.9805841 32.0167607,44.3689014 32.0167607,44.8413541 C32.0167607,45.3202788 32.405078,45.6999668 32.8775307,45.6999668 Z M41.7743113,51.455692 L32.8840027,51.455692 C32.405078,51.455692 32.0167607,51.8440093 32.0167607,52.3143047 C32.0167607,52.7953867 32.405078,53.1837039 32.8840027,53.1837039 L41.7743113,53.1837039 C42.246764,53.1837039 42.6350813,52.7953867 42.6350813,52.3143047 C42.6350813,51.8440093 42.246764,51.455692 41.7743113,51.455692 Z M40.620146,58.9307999 L32.8840027,58.9307999 C32.405078,58.9307999 32.0167607,59.3191172 32.0167607,59.7980418 C32.0167607,60.2704945 32.405078,60.6588118 32.8840027,60.6588118 L40.620146,60.6588118 C41.101228,60.6588118 41.480916,60.2704945 41.480916,59.7980418 C41.480916,59.3191172 41.101228,58.9307999 40.620146,58.9307999 Z M65,59.9425821 C65,65.9248258 60.1287753,70.7960504 54.1379024,70.7960504 C51.3398606,70.7960504 48.794225,69.7260206 46.8655825,67.9807501 C46.8655825,67.9807501 46.8655825,67.9807501 46.8569532,67.9807501 L26.8586127,67.9807501 C26.3883173,67.9807501 26,67.5924328 26,67.1221374 L26,26.7565549 C26,26.275473 26.3883173,25.8871557 26.8586127,25.8871557 L34.1481912,25.8871557 L34.1481912,23.5205775 C34.1481912,23.0394955 34.5365085,22.6598075 35.0175904,22.6598075 L38.5469632,22.6598075 L38.5469632,22.6101892 C38.5469632,20.0731829 40.620146,18 43.1657816,18 C45.7114172,18 47.7846001,20.0731829 47.7846001,22.6101892 L47.7846001,22.6598075 L51.3139728,22.6598075 C51.7950548,22.6598075 52.1747428,23.0394955 52.1747428,23.5205775 L52.1747428,25.8871557 L59.4643213,25.8871557 C59.9432459,25.8871557 60.322934,26.275473 60.322934,26.7565549 L60.322934,51.0263857 C63.1468636,52.9895453 65,56.2514106 65,59.9425821 Z M35.8762031,28.6096913 L50.4467308,28.6096913 L50.4467308,24.3878194 L46.7900763,24.3878194 C46.5290408,24.3878194 46.2744773,24.262695 46.1062064,24.0512778 C45.9465649,23.8398606 45.8883173,23.5615665 45.9551942,23.3091603 C46.022071,23.0481248 46.0565881,22.8280783 46.0565881,22.6188185 C46.0565881,21.0267176 44.7578825,19.7280119 43.1657816,19.7280119 C41.5736807,19.7280119 40.2749751,21.0267176 40.2749751,22.6188185 C40.2749751,22.8280783 40.3094922,23.0567541 40.3677398,23.3091603 C40.4346167,23.5701958 40.3763691,23.8398606 40.2167275,24.0512778 C40.0484567,24.262695 39.8025224,24.3878194 39.5328576,24.3878194 L35.8762031,24.3878194 L35.8762031,28.6096913 Z M27.7280119,66.2527381 L45.3230999,66.2527381 C44.0416528,64.4751079 43.2844341,62.2919018 43.2844341,59.9425821 C43.2844341,53.9495519 48.1556588,49.0783272 54.1379024,49.0783272 C55.7300033,49.0783272 57.2314968,49.4342848 58.594922,50.0491205 L58.594922,27.6151676 L52.1747428,27.6151676 L52.1747428,29.4704613 C52.1747428,29.9407567 51.7864255,30.329074 51.3139728,30.329074 L35.0089612,30.329074 C34.5365085,30.329074 34.1481912,29.9407567 34.1481912,29.4704613 L34.1481912,27.6151676 L27.7280119,27.6151676 L27.7280119,66.2527381 Z M63.2719881,59.9425821 C63.2719881,54.9030866 59.1773979,50.8063392 54.1379024,50.8063392 C49.1070362,50.8063392 45.0102887,54.9030866 45.0102887,59.9425821 C45.0102887,64.9734484 49.1070362,69.0680385 54.1379024,69.0680385 C59.1773979,69.0680385 63.2719881,64.9734484 63.2719881,59.9425821 Z M58.8991039,56.3441752 L53.6158314,61.4074013 L50.034683,58.5511118 C49.6636243,58.2555592 49.1242947,58.3159642 48.8201128,58.6870229 C48.5245602,59.0559243 48.5849652,59.5952539 48.9560239,59.8994358 L53.1261201,63.2368072 C53.2857617,63.3554597 53.4712911,63.4223365 53.6654497,63.4223365 C53.8768669,63.4223365 54.0947561,63.3382011 54.2651842,63.1785596 L60.0877863,57.5911052 C60.4329572,57.2610355 60.4502157,56.7066047 60.1115168,56.3679057 C59.7836044,56.0227348 59.2442748,56.0141055 58.8991039,56.3441752 Z" id="verified-list-of-exercises-of-a-gymnast-on-a-clipboard" fill="#000000"></path>
            </g>
        </g>
    </g>
</svg>