<?xml version="1.0" encoding="UTF-8"?>
<svg width="641px" height="373px" viewBox="0 0 641 373" version="1.1" xmlns="http://www.w3.org/2000/svg" xmlns:xlink="http://www.w3.org/1999/xlink">
    <!-- Generator: Sketch 51.2 (57519) - http://www.bohemiancoding.com/sketch -->
    <title>Group 11</title>
    <desc>Created with Sketch.</desc>
    <defs></defs>
    <g id="Page-1" stroke="none" stroke-width="1" fill="none" fill-rule="evenodd">
        <g id="Desktop-HD-Copy" transform="translate(-178.000000, -2656.000000)">
            <g id="Group-11" transform="translate(164.000000, 2652.000000)">
                <text id="Schools" font-family="Avenir-Book, Avenir" font-size="18" font-weight="normal" fill="#05213B">
                    <tspan x="448.486" y="18">Schools</tspan>
                </text>
                <text id="Businesses" font-family="Avenir-Book, Avenir" font-size="18" font-weight="normal" fill="#05213B">
                    <tspan x="126.318" y="41">Businesses</tspan>
                </text>
                <text id="Community-Organizati" font-family="Avenir-Book, Avenir" font-size="18" font-weight="normal" fill="#05213B">
                    <tspan x="29.997" y="107">Community </tspan>
                    <tspan x="21.006" y="132">Organizations</tspan>
                </text>
                <text id="Public-Policy-&amp;-Rese" font-family="Avenir-Book, Avenir" font-size="18" font-weight="normal" fill="#05213B">
                    <tspan x="13.334" y="229">Public Policy &amp; </tspan>
                    <tspan x="36.482" y="254">Research</tspan>
                </text>
                <text id="Congressional-Repres" font-family="Avenir-Book, Avenir" font-size="18" font-weight="normal" fill="#05213B">
                    <tspan x="82.494" y="305">Congressional </tspan>
                    <tspan x="76.005" y="330">Representatives</tspan>
                </text>
                <text id="Training-Programs-&amp;" font-family="Avenir-Book, Avenir" font-size="18" font-weight="normal" fill="#05213B">
                    <tspan x="260.185" y="351">Training Programs </tspan>
                    <tspan x="290.992" y="376">&amp; Services</tspan>
                </text>
                <text id="Hospitals-&amp;-Clinics" font-family="Avenir-Book, Avenir" font-size="18" font-weight="normal" fill="#05213B">
                    <tspan x="494.681" y="305">Hospitals &amp; </tspan>
                    <tspan x="514.508" y="330">Clinics</tspan>
                </text>
                <text id="Public-Housing" font-family="Avenir-Book, Avenir" font-size="18" font-weight="normal" fill="#05213B">
                    <tspan x="561.673" y="89">Public </tspan>
                    <tspan x="552.664" y="114">Housing</tspan>
                </text>
                <text id="Roads-&amp;-Transportati" font-family="Avenir-Book, Avenir" font-size="18" font-weight="normal" fill="#05213B">
                    <tspan x="564.984" y="211">Roads &amp; </tspan>
                    <tspan x="540.693" y="236">Transportation</tspan>
                </text>
                <path d="M360.506329,148.50431 L457.5,48.5" id="Line" stroke="#979797" stroke-width="3" stroke-linecap="square"></path>
                <path d="M380.503401,170.507463 L527.496599,105.492537" id="Line-2" stroke="#979797" stroke-width="3" stroke-linecap="square"></path>
                <path d="M381.503401,203.5 L528.496599,209.5" id="Line-3" stroke="#979797" stroke-width="3" stroke-linecap="square"></path>
                <path d="M367.50093,227.49854 L478.591241,286.589041" id="Line-4" stroke="#979797" stroke-width="3" stroke-linecap="square"></path>
                <path d="M332.5,239.494674 L332.5,320.59" id="Line-5" stroke="#979797" stroke-width="3" stroke-linecap="square"></path>
                <path d="M292.493506,220.492063 L215.506494,281.507937" id="Line-6" stroke="#979797" stroke-width="3" stroke-linecap="square"></path>
                <path d="M280.496154,195.5 L150.503846,226.5" id="Line-7" stroke="#979797" stroke-width="3" stroke-linecap="square"></path>
                <path d="M279.5,169.945614 L143.505513,114.49208" id="Line-8" stroke="#979797" stroke-width="3" stroke-linecap="square"></path>
                <path d="M296.5,149.5 L193.5,53.4954955" id="Line-9" stroke="#979797" stroke-width="3" stroke-linecap="square"></path>
                <g id="Group" transform="translate(276.000000, 132.000000)">
                    <path d="M56.0017571,18.4232374 C34.7199649,18.4232374 17.4056666,35.9539644 17.4056666,57.498221 C17.4056666,79.0460356 34.7199649,96.5767626 56.0017571,96.5767626 C77.2835493,96.5767626 94.5943334,79.0460356 94.5943334,57.498221 C94.5943334,35.9539644 77.2835493,18.4232374 56.0017571,18.4232374 Z M56.0017571,98 C33.9468482,98 16,79.8323743 16,57.498221 C16,35.1676257 33.9468482,17 56.0017571,17 C78.0566659,17 96,35.1676257 96,57.498221 C96,79.8323743 78.0566659,98 56.0017571,98 Z" id="Fill-110" fill="#251F19"></path>
                    <path d="M55.5,98 C55.225,98 55,97.6833297 55,97.2883813 L55,17.7116187 C55,17.3202284 55.225,17 55.5,17 C55.775,17 56,17.3202284 56,17.7116187 L56,97.2883813 C56,97.6833297 55.775,98 55.5,98" id="Fill-111" fill="#251F19"></path>
                    <path d="M53.2960782,98 C53.1623304,98 53.0285826,97.9644188 52.9124332,97.8825822 C39.36519,88.9268031 31.555023,73.2426259 32.0196206,55.9323895 C32.4701395,39.2661721 40.4844478,24.3861292 52.9441103,17.0955487 C53.2784798,16.8998523 53.7114003,17.013712 53.9049826,17.3552912 C54.0985649,17.6968703 53.9859352,18.1309605 53.6480461,18.3266569 C41.610745,25.3717275 33.8639322,39.7963315 33.4274921,55.9679706 C32.9734535,72.7836289 40.547802,88.0088091 53.6797232,96.6941713 C54.0070533,96.9076583 54.0985649,97.3488647 53.8838645,97.6797695 C53.7501167,97.8861403 53.5248573,98 53.2960782,98" id="Fill-112" fill="#251F19"></path>
                    <path d="M58.6966611,98 C58.4561371,98 58.2225848,97.8750443 58.0936082,97.6465539 C57.9018861,97.3038184 58.0134335,96.8682586 58.3480756,96.6683295 C70.3986773,89.5244351 78.1547053,74.9688841 78.5869514,58.6853746 C79.029655,42.0341384 71.6012974,26.943063 58.7175763,18.310411 C58.3968776,18.0962012 58.3062453,17.6535011 58.5153967,17.3214761 C58.7280338,16.9930211 59.1602799,16.9001969 59.4809786,17.1179768 C66.4422316,21.7806086 71.779076,28.0319625 75.3416201,35.6971006 C78.5904373,42.6839079 80.1939307,50.6489396 79.9812935,58.7246463 C79.535104,75.5008382 71.514151,90.51337 59.0452467,97.9036056 C58.9371852,97.9714387 58.8151802,98 58.6966611,98" id="Fill-113" fill="#251F19"></path>
                    <path d="M53.2960782,98 C53.1623304,98 53.0285826,97.9644188 52.9124332,97.8825822 C39.36519,88.9268031 31.555023,73.2426259 32.0196206,55.9323895 C32.4701395,39.2661721 40.4844478,24.3861292 52.9441103,17.0955487 C53.2784798,16.8998523 53.7114003,17.013712 53.9049826,17.3552912 C54.0985649,17.6968703 53.9859352,18.1309605 53.6480461,18.3266569 C41.610745,25.3717275 33.8639322,39.7963315 33.4274921,55.9679706 C32.9734535,72.7836289 40.547802,88.0088091 53.6797232,96.6941713 C54.0070533,96.9076583 54.0985649,97.3488647 53.8838645,97.6797695 C53.7501167,97.8861403 53.5248573,98 53.2960782,98" id="Fill-114" fill="#251F19"></path>
                    <path d="M58.6966611,98 C58.4561371,98 58.2225848,97.8750443 58.0936082,97.6465539 C57.9018861,97.3038184 58.0134335,96.8682586 58.3480756,96.6683295 C70.3986773,89.5244351 78.1547053,74.9688841 78.5869514,58.6853746 C79.029655,42.0341384 71.6012974,26.943063 58.7175763,18.310411 C58.3968776,18.0962012 58.3062453,17.6535011 58.5153967,17.3214761 C58.7280338,16.9930211 59.1602799,16.9001969 59.4809786,17.1179768 C66.4422316,21.7806086 71.779076,28.0319625 75.3416201,35.6971006 C78.5904373,42.6839079 80.1939307,50.6489396 79.9812935,58.7246463 C79.535104,75.5008382 71.514151,90.51337 59.0452467,97.9036056 C58.9371852,97.9714387 58.8151802,98 58.6966611,98" id="Fill-115" fill="#251F19"></path>
                    <path d="M95.2971667,58 L16.7028333,58 C16.316275,58 16,57.7775 16,57.5 C16,57.225 16.316275,57 16.7028333,57 L95.2971667,57 C95.6872392,57 96,57.225 96,57.5 C96,57.7775 95.6872392,58 95.2971667,58" id="Fill-116" fill="#251F19"></path>
                    <path d="M89.2974239,37 L21.7025761,37 C21.3161593,37 21,36.7775 21,36.5 C21,36.225 21.3161593,36 21.7025761,36 L89.2974239,36 C89.6873536,36 90,36.225 90,36.5 C90,36.7775 89.6873536,37 89.2974239,37" id="Fill-117" fill="#251F19"></path>
                    <path d="M89.2974239,78 L21.7025761,78 C21.3161593,78 21,77.775 21,77.5 C21,77.2225 21.3161593,77 21.7025761,77 L89.2974239,77 C89.6873536,77 90,77.2225 90,77.5 C90,77.775 89.6873536,78 89.2974239,78" id="Fill-118" fill="#251F19"></path>
                    <path d="M41,78.0018462 C41,79.6596923 39.656,81 37.9981538,81 C36.3403077,81 35,79.6596923 35,78.0018462 C35,76.344 36.3403077,75 37.9981538,75 C39.656,75 41,76.344 41,78.0018462" id="Fill-119" fill="#69C6E2"></path>
                    <path d="M92,77.9981538 C92,79.656 90.656,81 89.0018462,81 C87.344,81 86,79.656 86,77.9981538 C86,76.344 87.344,75 89.0018462,75 C90.656,75 92,76.344 92,77.9981538" id="Fill-120" fill="#DC4B3F"></path>
                    <path d="M20,56.9981538 C20,58.656 18.656,60 16.9981538,60 C15.3403077,60 14,58.656 14,56.9981538 C14,55.344 15.3403077,54 16.9981538,54 C18.656,54 20,55.344 20,56.9981538" id="Fill-121" fill="#DC4B3F"></path>
                    <path d="M99,56.9981538 C99,58.656 97.656,60 95.9981538,60 C94.3403077,60 93,58.656 93,56.9981538 C93,55.3403077 94.3403077,54 95.9981538,54 C97.656,54 99,55.3403077 99,56.9981538" id="Fill-122" fill="#69C6E2"></path>
                    <path d="M40,36.9981538 C40,38.656 38.656,40 37.0018462,40 C35.344,40 34,38.656 34,36.9981538 C34,35.344 35.344,34 37.0018462,34 C38.656,34 40,35.344 40,36.9981538" id="Fill-123" fill="#69C6E2"></path>
                    <path d="M78,36.9981538 C78,38.656 76.656,40 75.0018462,40 C73.344,40 72,38.656 72,36.9981538 C72,35.344 73.344,34 75.0018462,34 C76.656,34 78,35.344 78,36.9981538" id="Fill-124" fill="#DC4B3F"></path>
                    <path d="M59,56.9981538 C59,58.656 57.656,60 55.9981538,60 C54.3403077,60 53,58.656 53,56.9981538 C53,55.3403077 54.3403077,54 55.9981538,54 C57.656,54 59,55.3403077 59,56.9981538" id="Fill-125" fill="#D5D4CF"></path>
                    <path d="M56.5,105.432292 C29.9877287,105.432292 8.49281834,83.7478378 8.49281834,57.0017797 C8.49281834,30.2521622 29.9877287,8.5677085 56.5,8.5677085 L56.5,0 C25.2949791,0 0,25.5215912 0,57.0017797 C0,88.4819683 25.2949791,114 56.5,114 C87.6097546,114 112.841223,88.6421457 113,57.297218 L104.503653,57.297218 C104.344876,83.9080151 82.9170049,105.432292 56.5,105.432292" id="Fill-126" fill="#D5D4CF"></path>
                    <path d="M56,0 L56,8.5232652 C82.7487823,8.5232652 104.432559,30.0952351 104.432559,56.7060943 C104.432559,56.8052432 104.429,56.9008511 104.42544,57 L112.996441,57 C112.996441,56.9008511 113,56.8052432 113,56.7060943 C113,25.389203 87.4792057,0 56,0" id="Fill-127" fill="#DC4B3F"></path>
                    <path d="M72,102.831993 L74.705874,111 C83.2075096,108.143878 90.8131134,103.328865 97,97.0840036 L90.9446736,91 C85.6893756,96.308311 79.2251458,100.404826 72,102.831993 L326,525" id="Fill-128" fill="#5BB0A6"></path>
                    <path d="M104.680905,57 C104.680905,70.2554434 99.4572864,82.2611082 91,90.9741547 L96.8834799,97 C106.843593,86.7468579 113,72.6098424 113,57 L104.680905,57" id="Fill-129" fill="#69C6E2"></path>
                </g>
                <text id="Your-Data" font-family="Avenir-Heavy, Avenir" font-size="18" font-weight="600" fill="#05213B">
                    <tspan x="290.839" y="117">Your Data</tspan>
                </text>
            </g>
        </g>
    </g>
</svg>